<?xml version="1.0" encoding="UTF-8"?>
<!DOCTYPE svg PUBLIC "-//W3C//DTD SVG 1.1//EN" "http://www.w3.org/Graphics/SVG/1.1/DTD/svg11.dtd">
<!-- Creator: CorelDRAW 2020 (64-Bit) -->
<svg xmlns="http://www.w3.org/2000/svg" xml:space="preserve" width="34.3345mm" height="34.3742mm" version="1.1" style="shape-rendering:geometricPrecision; text-rendering:geometricPrecision; image-rendering:optimizeQuality; fillRule:evenodd; clip-rule:evenodd"
viewBox="0 0 7629.65 7638.48"
 xmlns:xlink="http://www.w3.org/1999/xlink"
 xmlns:xodm="http://www.corel.com/coreldraw/odm/2003">
 <defs>
  <style type="text/css">
   <![CDATA[
    .str0 {stroke:white;stroke-width:222.22;stroke-miterlimit:22.9256}
    .fil6 {fill:none;fillRule:nonzero}
    .fil0 {fill:#2C98D9}
    .fil1 {fill:#32AC64}
    .fil2 {fill:#34495C}
    .fil3 {fill:#824AAD}
    .fil4 {fill:#F59C31}
    .fil5 {fill:#FB451D}
    .fil7 {fill:black;fillRule:nonzero}
   ]]>
  </style>
 </defs>
 <g id="Слой_x0020_1">
  <metadata id="CorelCorpID_0Corel-Layer"/>
  <g id="_2184924758640">
   <path class="fil0" d="M5367.5 3177.81c-16.04,39.4 26.6,114.8 41.15,162.68 54.69,179.71 73.06,394.25 63.71,583.58 -11.33,228.88 -94.24,513.72 -192.86,681.16 -46.18,78.4 8.07,110.4 110.06,278.08l328.88 537.05c54.86,87.71 120.33,185.93 170.57,272.19l1221.52 25.33c53.53,-48.8 157.95,-282.52 199.95,-370.28 193.22,-403.92 289.5,-927.95 315.12,-1385.8 31.95,-570.85 -127.62,-1384.07 -402.52,-1862.36 -33.11,22.4 -541.27,880.11 -557.72,907.99 -72.93,123.73 -52.18,135 -223.93,140.88 -118.8,4.04 -238.68,8.73 -355.88,12.44 -142.26,4.51 -624,5.89 -718.07,17.04z"/>
   <path class="fil1" d="M4025.52 2163.09c53.87,20.73 215.3,35.18 398.97,108.82 353.19,141.57 620.87,383.32 821.13,700.6 100.73,10.49 1181.3,-16.51 1220.32,-31.95l627.27 -1030.08c23.22,-77.15 -383.19,-599.58 -455.74,-667.2 -25.89,-24.11 -29.91,-25.55 -52.11,-51.38 -163.62,-190.46 -456.47,-422.41 -675.31,-566.74 -331.5,-218.62 -746.04,-408.92 -1148.32,-508.07 -171.51,-42.27 -543.94,-119.82 -726.09,-108.02 5.44,73.66 572.56,1011.55 561.14,1077.94 -6.38,37.09 -572.36,1024.88 -571.25,1076.08z"/>
   <path class="fil2" d="M3808.95 5479.59c-30.2,39.6 -66.93,118.75 -94.13,167.17l-453.94 835.42c-54.44,96.91 -43.42,74.58 9.84,174.04l451.72 827.95c100.4,191.15 41.55,157.35 359.23,141.35 932.55,-47 1852.41,-510.85 2459.19,-1136.88 22.62,-23.33 45.49,-40.53 67.09,-64.44l287.12 -353.03c22.33,-29.95 97.84,-116.69 88.93,-155.48 -238.46,-9 -481.67,-3.2 -720.04,-11.56 -119.2,-4.18 -239.41,-7.33 -358.41,-9.36 -73.51,-1.24 -116.35,13.96 -153.95,-36.78 -100.91,-136.17 -572.56,-967.64 -625.94,-1010.28 -65.22,47.95 -207.77,274.52 -537.96,439.41 -274.08,136.88 -434.1,174.99 -778.75,192.46z"/>
   <path class="fil3" d="M3565.67 7627.3c-18.07,-69.64 -105.57,-207.84 -142.57,-276.28 -47.75,-88.44 -95.84,-183.22 -144.71,-269.28l-222.84 -398.68c-79.46,-155.88 -73.33,-89.29 22.02,-271.72l216.5 -404.25c48.31,-94.77 271.9,-475.45 282.15,-544.67 -548.63,-97.29 -910.91,-368.61 -1192.7,-808.22l-1251.01 36.29 -315.32 514.21c-40.73,68.11 -305.52,473.27 -298.28,523.16 12.02,82.73 258.15,397.45 332.12,496.85 18.51,24.89 27.95,31.58 47.47,56.04l146.97 163.66c62.44,73.49 235.99,235.7 314.83,297.06 231.77,180.28 322.75,263.9 614.38,421.1 93.6,50.44 169.46,89.64 268.93,136 309.59,144.33 990.08,345.08 1322.05,328.75z"/>
   <path class="fil4" d="M641.82 1716.86l1078.54 23.75c110.49,0.73 102.2,-17.44 203.93,161.26 58.69,103.06 519.38,871.62 567.36,902.84 37.62,-20.2 116.86,-124 152.91,-158.75 209.9,-202.37 300.08,-252.44 572.8,-376.19 372.3,-168.95 551.23,-32.89 615.2,-174.33l495.41 -927.55c66.95,-119 33.29,-127.4 -20.33,-229.24l-450.9 -820.13c-55.26,-101.73 -40,-122.95 -189.44,-117.82 -261.04,8.93 -576,50.69 -824.4,122.13 -364.3,104.75 -577.92,196.22 -901.77,369.06 -142.08,75.82 -258.55,157.75 -382.03,248.48 -241.26,177.31 -462.07,370.92 -653.36,607.43l-208.53 271.88c-46.13,69.73 -58.2,60.75 -55.4,97.17z"/>
   <path class="fil5" d="M0.02 3820.22c-0.16,442.56 83.93,923.35 235.61,1324.94 28.09,74.4 119.62,314.21 158.24,351.86 45.69,-24.64 108.17,-159.88 144.4,-214.1 52.89,-79.11 92.17,-151.24 139.31,-227.28 87.86,-141.84 179.46,-308.17 276.08,-459.94 72.89,-114.51 45.2,-102.2 249.24,-109.82l1066.15 -31.53c0.2,-94.15 -302.04,-631.78 69.6,-1400.65 24.47,-50.6 24.98,-65.8 -5.73,-110.13l-600.58 -971.55c-34.69,-53.91 -126.37,-33.53 -247.24,-34.44 -285.99,-2.13 -574.78,-17.93 -856.04,-16.67 -156.77,0.69 -131.15,8.42 -194.22,124.09 -284.28,521.43 -434.61,1167.88 -434.81,1775.23z"/>
  </g>
  <g>
   <path class="fil6 str0" d="M1672.46 2729.83c-547.01,0 -1005.86,398.08 -1005.86,1093.97 0,683.73 452.79,1084.86 1005.86,1084.86 297.79,0 568.25,-112.44 750.58,-328.19l-392.01 -215.75c-97.24,91.15 -221.84,154.97 -358.57,154.97 -309.97,0 -550.03,-273.5 -550.03,-695.89 0,-422.39 240.06,-705 550.03,-705 136.73,0 261.33,72.93 358.57,164.08l392.01 -218.79c-182.33,-215.75 -452.79,-334.26 -750.58,-334.26z"/>
  </g>
  <g>
   <polygon id="1" class="fil6 str0" points="4714.3,2757.16 4258.49,2757.16 3751,3905.84 3243.52,2757.16 2787.69,2757.16 2787.69,4884.34 3243.52,4884.34 3243.52,3656.67 3592.98,4477.13 3905.97,4477.13 4258.49,3656.67 4258.49,4884.34 4714.3,4884.34 "/>
  </g>
  <g>
   <path id="2" class="fil6 str0" d="M6476.82 4884.34l486.21 0 -771.87 -2127.18 -492.27 0 -771.87 2127.18 483.16 0 151.95 -458.85c115.49,42.53 246.15,82.04 379.85,82.04 136.75,0 267.41,-39.51 385.92,-85.09l148.91 461.9zm-534.83 -765.78c-85.09,0 -182.33,-27.35 -258.3,-66.86l261.35 -802.24 261.33 799.2c-75.98,39.51 -176.24,69.91 -264.37,69.91z"/>
  </g>
  <path id="3" class="fil7" d="M1672.46 2729.83c-547.01,0 -1005.86,398.08 -1005.86,1093.97 0,683.73 452.79,1084.86 1005.86,1084.86 297.79,0 568.25,-112.44 750.58,-328.19l-392.01 -215.75c-97.24,91.15 -221.84,154.97 -358.57,154.97 -309.97,0 -550.03,-273.5 -550.03,-695.89 0,-422.39 240.06,-705 550.03,-705 136.73,0 261.33,72.93 358.57,164.08l392.01 -218.79c-182.33,-215.75 -452.79,-334.26 -750.58,-334.26z"/>
  <polygon id="4" class="fil7" points="4714.3,2757.16 4258.49,2757.16 3751,3905.84 3243.52,2757.16 2787.69,2757.16 2787.69,4884.34 3243.52,4884.34 3243.52,3656.67 3592.98,4477.13 3905.97,4477.13 4258.49,3656.67 4258.49,4884.34 4714.3,4884.34 "/>
  <path id="5" class="fil7" d="M6476.82 4884.34l486.21 0 -771.87 -2127.18 -492.27 0 -771.87 2127.18 483.16 0 151.95 -458.85c115.49,42.53 246.15,82.04 379.85,82.04 136.75,0 267.41,-39.51 385.92,-85.09l148.91 461.9zm-534.83 -765.78c-85.09,0 -182.33,-27.35 -258.3,-66.86l261.35 -802.24 261.33 799.2c-75.98,39.51 -176.24,69.91 -264.37,69.91z"/>
 </g>
</svg>
