<svg width="170" height="170" viewBox="0 0 170 170" fill="none" xmlns="http://www.w3.org/2000/svg">
<path d="M55.3139 43.6539C51.3819 41.0528 48.4339 37.3317 46.9009 33.0346C45.3679 28.7375 45.3303 24.0898 46.7936 19.7711C48.2569 15.4524 51.1444 11.6891 55.0338 9.03158C58.9232 6.37405 63.6106 4.96161 68.4106 5.00079C73.2106 5.03997 77.8714 6.52872 81.7116 9.24935C85.5519 11.97 88.3701 15.7798 89.7541 20.1218C91.1382 24.4637 91.0156 29.1101 89.4042 33.3816C87.7928 37.653 84.7772 41.3254 80.7983 43.8619M12.2955 92.136C15.1832 88.5138 19.2218 85.8592 23.8209 84.5604C28.42 83.2616 33.3383 83.3868 37.8567 84.9176C42.3751 86.4484 46.2566 89.3045 48.9337 93.0684C51.6107 96.8322 52.943 101.306 52.7356 105.837C52.5282 110.367 50.7921 114.716 47.781 118.247C44.77 121.779 40.642 124.308 36.0006 125.465C31.3592 126.621 26.4478 126.345 21.9846 124.676C17.5214 123.007 13.7404 120.033 11.1945 116.189" stroke="#043B7C" stroke-width="9" stroke-linecap="round" stroke-linejoin="round"/>
<path d="M55.3139 43.6538C56.8278 46.3148 56.5342 50.8479 49.3958 51.654H5.12501V87.3644C4.99388 88.2137 5.11457 89.0806 5.47366 89.869C5.83275 90.6573 6.41618 91.3361 7.15913 91.8301C7.90207 92.324 8.77544 92.6137 9.68218 92.6669C10.5889 92.7201 11.4935 92.5348 12.2955 92.1316M11.1991 116.184C10.4545 115.856 9.62695 115.734 8.81196 115.831C7.99697 115.929 7.22768 116.242 6.59277 116.734C5.95787 117.226 5.4832 117.878 5.22351 118.614C4.96382 119.351 4.92967 120.141 5.12501 120.895V155.262H99.1718" stroke="#043B7C" stroke-width="9" stroke-linecap="round" stroke-linejoin="round"/>
<path d="M61.2274 130.299L72.9351 149.541C87.01 141.68 101.388 149.576 101.388 165H124.771C124.771 149.576 137.791 142.404 153.288 149.576L165 130.291C150.554 122.46 150.544 107.157 165 99.3041L153.288 80.075C139.364 87.8845 124.771 80.0924 124.771 64.5947H101.388C101.388 80.0924 87.0146 87.8845 72.9259 80.0924L61.2274 98.9574C76.0363 107.148 75.1739 122.728 61.2274 130.299V130.299Z" stroke="#043B7C" stroke-width="9" stroke-linecap="round" stroke-linejoin="round"/>
<path d="M113.114 132.861C123.674 132.861 132.235 124.773 132.235 114.797C132.235 104.821 123.674 96.7341 113.114 96.7341C102.553 96.7341 93.9923 104.821 93.9923 114.797C93.9923 124.773 102.553 132.861 113.114 132.861Z" stroke="#043B7C" stroke-width="9" stroke-linecap="round" stroke-linejoin="round"/>
<path d="M80.7983 43.8619C78.6512 45.4914 78.1374 50.8307 86.2392 51.6541H124.771V64.5948" stroke="#043B7C" stroke-width="9" stroke-linecap="round" stroke-linejoin="round"/>
</svg>
