<svg width="719" height="583" viewBox="0 0 719 583" fill="none" xmlns="http://www.w3.org/2000/svg">
<path fill-rule="evenodd" clip-rule="evenodd" d="M706.952 149.488C706.396 149.083 705.076 148.94 704.462 148.818C701.909 148.316 699.28 148.097 696.678 148.097C688.655 148.109 680.501 148.897 672.611 150.26C667.601 151.124 661.545 154.037 656.561 152.455C647.88 149.7 639.106 149.835 630.869 153.769C623.338 157.366 617.621 164.198 614.285 171.58C613.781 172.695 611.739 176.797 611.161 179.562C610.914 180.127 610.677 180.696 610.463 181.273C609.856 182.914 609.31 184.583 608.804 186.255C608.588 186.969 608.044 188.544 608.69 188.848C607.658 190.754 606.743 192.716 605.981 194.743C603.765 200.638 601.341 207.104 600.562 213.351C600.274 215.664 600.263 217.991 600.531 220.308C600.663 221.454 600.609 223.757 601.385 224.629C603.034 226.477 603.88 223.89 603.694 222.657C602.276 213.264 605.016 204.443 608.262 195.614C610.363 189.905 613.813 184.681 617.678 179.951C620.805 176.121 624.161 173.106 628.448 170.568C633.692 167.463 639.298 164.954 644.851 162.436C648.505 160.78 652.162 159.167 655.917 157.741C656.752 157.423 658.065 156.608 658.992 156.605C660.949 156.599 663.724 158.043 665.615 158.58C671.835 160.349 678.135 162.613 684.563 163.516C688.687 164.096 692.55 163.443 696.406 162.07C696.8 161.93 697.461 161.569 698.27 161.054C701.133 159.953 703.842 158.567 706.2 156.566C707.558 155.415 708.792 153.926 709.916 152.562C710.252 152.156 710.401 151.688 710.406 151.244C710.661 151.112 710.829 150.955 710.868 150.774C711.149 149.433 708.59 149.409 706.952 149.488Z" fill="#89C5CC"/>
<path fill-rule="evenodd" clip-rule="evenodd" d="M55.1687 261.298C53.5946 262.572 52.0508 263.874 50.5446 265.229C49.3966 266.261 47.3652 267.497 46.953 269.061C46.5247 270.687 47.877 272.209 48.9454 273.191C54.595 278.389 60.9567 281.903 68.7852 282.488C80.8392 283.388 91.3296 280.309 101.788 274.253C109.135 269.998 114.001 263.705 115.064 255.207C123.813 258.843 132.274 263.855 139.466 270.006C143.014 273.041 146.069 276.404 148.896 280.131C150.706 282.519 152.457 284.945 154.082 287.465C154.788 288.559 155.507 290.501 156.673 291.131C158.042 291.871 159.697 290.711 159.63 289.189C159.572 287.922 158.205 286.452 157.565 285.417C156.503 283.697 155.424 281.987 154.289 280.316C152.451 277.607 150.552 274.938 148.481 272.404C143.825 266.709 137.902 262.007 131.762 257.996C119.984 250.301 107.056 245.453 92.7243 245.043C83.9118 244.79 76.4982 247.801 68.9619 252.297C64.2699 255.096 59.4264 257.85 55.1687 261.298Z" fill="#C5DBF4"/>
<path fill-rule="evenodd" clip-rule="evenodd" d="M169.484 224.08C160.3 214.622 151.085 205.283 140.824 196.954C134.778 192.047 128.405 187.584 122.164 182.932C122.884 183.563 123.59 184.211 124.279 184.877C122.331 183.554 119.781 182.806 117.716 181.582C115.412 180.217 113.21 178.655 111.05 177.081C106.833 174.008 102.68 170.877 98.3458 167.966C93.517 164.721 88.5126 161.724 83.6015 158.601C79.4334 155.952 75.2144 153.052 70.7555 150.885C68.3252 149.705 65.8893 148.306 63.4491 147.075C62.6324 146.663 54.3455 141.43 54.3664 141.413C54.8245 141.069 58.9946 143.028 59.6395 143.292C61.5233 144.061 63.3249 144.981 65.1361 145.899C64.1419 143.938 63.355 141.878 62.9267 139.709C62.7944 139.04 61.7341 134.167 62.2766 133.758C62.5476 133.554 65.1914 142.273 65.3268 143.11C65.4368 143.791 65.4207 144.772 65.6435 145.416C66.0034 146.458 65.9852 146.143 66.7779 146.73C68.2308 147.806 70.1592 148.477 71.7317 149.375C72.5796 149.849 75.2049 151.726 76.786 152.261C81.5705 154.585 86.42 158.16 90.966 161.128C89.773 158.886 88.865 156.541 88.2029 154.084C88.0454 153.501 86.3463 148.269 86.7586 147.958C87.2224 147.607 90.4598 155.6 90.6516 156.357C91.0079 157.762 91.0819 159.326 91.5281 160.694C92.0173 162.195 93.5452 162.727 94.9218 163.602C99.9874 166.82 104.88 170.24 109.69 173.817C114.939 164.482 108.887 153.21 103.787 145.378C100.109 139.732 95.1607 134.893 89.9342 130.668C82.9597 125.029 74.9799 120.525 67.0099 116.404C57.7232 111.603 47.686 108.628 37.251 107.254C31.7934 106.535 26.2099 106.555 20.6971 106.786C18.0041 106.898 15.4192 107.254 12.8385 108.133C11.6753 108.53 10.5511 109.029 9.45559 109.588C8.62323 110.013 6.60974 110.461 6.13113 111.094C2.19166 116.222 0.176296 121.332 0.484066 127.775C0.775045 133.874 2.70134 139.976 5.31556 145.417C8.22691 151.475 11.9713 156.973 16.8683 161.588C20.6046 165.109 24.7816 168.173 28.9311 171.198C43.6898 181.953 62.4013 191.308 81.5163 188.905C87.7039 188.128 93.589 185.963 99.0884 183.022C100.385 182.33 101.673 181.629 102.896 180.811C103.721 180.26 105.926 177.774 106.755 177.684C107.893 177.561 110.342 179.873 111.409 180.577C119.516 185.929 127.411 191.571 135.14 197.441C143.365 203.686 151.185 210.357 158.775 217.34C162.003 220.31 165.211 223.288 168.345 226.358C169.075 227.073 170.86 229.703 172.183 229.822C173.02 229.898 173.584 229.183 173.465 228.409C173.258 227.062 170.425 225.048 169.484 224.08Z" fill="#C1DEE2"/>
<path fill-rule="evenodd" clip-rule="evenodd" d="M697.31 187.373C693.754 186.597 689.825 186.656 686.202 186.72C666.768 186.984 647.684 196.185 635.265 210.886C624.692 223.402 621.784 238.962 619.695 254.692C619.488 256.253 619.4 257.805 619.283 259.37C619.258 259.706 619.22 260.005 619.18 260.288C618.359 261.022 617.927 261.879 618.414 262.819C616.605 266.779 615.074 270.839 613.76 275.028C609.893 287.355 605.961 299.918 608.383 312.88C608.949 305.746 610.14 298.452 611.564 291.435C611.645 291.033 611.734 290.633 611.826 290.235C611.836 290.193 611.845 290.15 611.854 290.109C612.358 287.96 613.013 285.876 613.81 283.825C613.818 283.802 613.826 283.78 613.835 283.758C613.94 283.488 614.052 283.219 614.162 282.951C614.39 282.395 614.625 281.84 614.873 281.289C614.958 281.1 615.038 280.91 615.116 280.719C616.276 277.876 616.765 274.672 617.805 271.731C618.053 271.063 618.313 270.396 618.585 269.733C618.602 269.694 618.618 269.656 618.634 269.617C619.371 267.833 620.183 266.071 621.043 264.327C621.511 263.976 621.76 263.105 622.163 262.314C622.246 262.157 622.898 261.117 623.092 260.518C623.599 259.538 624.102 258.559 624.612 257.581C624.598 257.587 624.582 257.592 624.566 257.598C625.076 256.659 625.588 255.724 626.096 254.793C626.208 254.588 626.321 254.384 626.433 254.179C626.616 253.852 626.798 253.526 626.98 253.2C628.682 250.154 630.487 247.169 632.361 244.221C633.031 243.168 634.629 241.659 634.935 240.479C634.947 240.434 634.949 240.393 634.956 240.351C639.024 234.638 643.705 229.369 649.321 225.194C648.642 225.929 647.199 228.418 646.818 228.911C645.65 230.421 644.383 231.825 643.112 233.248C640.833 235.796 638.61 238.424 636.633 241.203C633.018 246.287 629.901 251.636 626.953 257.094C626.925 257.125 626.894 257.155 626.868 257.189C625.386 259.015 624.454 261.774 623.388 263.863C627.608 261.909 632.275 260.635 636.605 258.9C640.925 257.17 645.126 255.242 649.183 252.98C654.574 249.972 660.167 246.578 665.261 242.736C671.098 239.114 676.004 234.13 680.334 228.9C685.457 222.711 690.152 216.469 693.056 208.955C694.483 205.263 695.605 201.412 696.27 197.517C696.299 197.348 696.336 197.164 696.377 196.973C697.058 195.627 697.666 194.252 698.177 192.845C698.987 190.613 700.903 188.158 697.31 187.373Z" fill="#69A1AC"/>
<path fill-rule="evenodd" clip-rule="evenodd" d="M94.5234 213.519C93.4095 212.312 92.158 211.223 90.6882 210.446C90.3166 210.25 87.5491 208.936 87.3689 209.224C86.949 209.896 94.1886 213.133 94.5234 213.519ZM107.646 205.458C107.636 205.509 108.596 207.137 108.857 207.638C109.413 208.703 109.926 209.787 110.409 210.875C109.695 208.955 108.96 207.174 107.646 205.458ZM40.5381 218.713C39.6138 219.01 38.5027 217.837 39.7015 217.548C40.6715 217.316 40.6239 217.262 41.0595 216.48C41.4131 215.846 41.631 215.072 41.9414 214.406C42.5997 212.994 43.3464 211.647 44.263 210.385C46.2275 207.679 48.6209 205.348 51.3055 203.384C55.9903 199.957 61.2433 196.823 66.8156 195.249C75.6754 192.746 85.7592 192.591 94.6329 194.327C100.129 195.401 105.151 197.27 108.8 201.695C110.624 203.906 112.056 206.497 112.682 209.349C112.846 210.095 112.814 210.924 113.019 211.654C113.334 212.777 113.195 212.478 114.508 212.696C115.941 212.935 117.373 213.178 118.805 213.426C122.554 214.075 126.326 214.763 129.979 215.815C131.181 216.162 132.357 216.585 133.506 217.076C134.375 217.448 137.834 218.615 138.255 219.743C138.954 221.621 136.61 220.77 135.881 220.36C135.243 220.003 134.588 219.668 133.923 219.36C132.249 218.586 130.506 217.987 128.722 217.51C126.795 216.995 124.829 216.61 122.869 216.224C121.043 215.865 119.21 215.539 117.373 215.226C116.353 215.053 115.333 214.884 114.312 214.716C113.963 214.658 113.348 214.356 113.394 214.81C111.248 214.396 108.927 214.455 106.741 214.342C104.064 214.202 101.376 214.087 98.6899 214.171C96.7521 214.231 94.8133 214.358 92.8849 214.619C91.7586 214.771 90.6501 214.994 89.5449 215.275C88.9378 215.431 86.5439 215.759 86.2132 216.288C86.3552 216.06 88.9973 216.282 89.3336 216.268C90.6787 216.218 92.013 216.084 93.3532 215.935C95.8406 215.657 98.328 215.512 100.823 215.533C100.813 215.971 99.1092 216.751 98.693 217.041C97.7606 217.693 96.8669 218.402 96.0335 219.181C94.5661 220.552 92.8078 222.251 91.793 223.877C92.0923 223.398 93.5681 222.775 94.0916 222.409C94.9312 221.823 95.754 221.197 96.5321 220.528C97.2496 219.911 97.9202 219.243 98.5794 218.562C99.2385 217.881 100.132 216.464 100.999 216.01C101.051 215.982 101.429 216.281 101.642 216.179C101.859 216.077 102.128 215.566 102.183 215.545C102.989 215.234 104.52 215.621 105.368 215.661C107.565 215.762 109.762 215.895 111.957 216.016C112.638 216.053 113.216 215.898 113.473 216.399C113.747 216.935 113.245 218.342 113.102 218.925C112.572 221.091 111.633 223.031 110.152 224.71C107.38 227.852 103.96 229.946 100.098 231.348C85.3046 236.715 69.5663 238.864 54.7773 233.281C48.6547 230.969 39.434 226.839 40.5381 218.713Z" fill="#89C5CC"/>
<g opacity="0.6">
<path fill-rule="evenodd" clip-rule="evenodd" d="M717.888 471.565C727.952 539.693 483.881 584.132 273.804 553.119C63.7258 522.107 -32.6479 401.001 67.5977 336.471C167.844 271.941 707.824 403.436 717.888 471.565Z" fill="#C5DBF4"/>
</g>
<path d="M288.501 25.0304H139.361C134.753 25.0304 131.018 28.7659 131.018 33.3739V331.653C131.018 336.261 134.753 339.996 139.361 339.996H288.501C293.109 339.996 296.844 336.261 296.844 331.653V33.3739C296.844 28.7659 293.109 25.0304 288.501 25.0304Z" fill="#F2F2F2"/>
<path fill-rule="evenodd" clip-rule="evenodd" d="M213.41 320.181C222.049 320.181 229.054 313.176 229.054 304.537C229.054 295.897 222.049 288.893 213.41 288.893C204.77 288.893 197.766 295.897 197.766 304.537C197.766 313.176 204.77 320.181 213.41 320.181Z" fill="white"/>
<path fill-rule="evenodd" clip-rule="evenodd" d="M199.851 45.8891C201.004 45.8891 201.937 44.9552 201.937 43.8032C201.937 42.6512 201.004 41.7173 199.851 41.7173C198.699 41.7173 197.766 42.6512 197.766 43.8032C197.766 44.9552 198.699 45.8891 199.851 45.8891Z" fill="white"/>
<path d="M226.968 41.7173H209.238C208.086 41.7173 207.152 42.6512 207.152 43.8032C207.152 44.9552 208.086 45.8891 209.238 45.8891H226.968C228.12 45.8891 229.054 44.9552 229.054 43.8032C229.054 42.6512 228.12 41.7173 226.968 41.7173Z" fill="white"/>
<path d="M278.072 54.2326H149.791C147.487 54.2326 145.619 56.1003 145.619 58.4043V106.379C145.619 108.683 147.487 110.551 149.791 110.551H278.072C280.376 110.551 282.243 108.683 282.243 106.379V58.4043C282.243 56.1003 280.376 54.2326 278.072 54.2326Z" fill="white"/>
<path d="M259.299 71.1281H189.422C187.694 71.1281 186.293 72.5289 186.293 74.2569V76.447C186.293 78.175 187.694 79.5758 189.422 79.5758H259.299C261.027 79.5758 262.428 78.175 262.428 76.447V74.2569C262.428 72.5289 261.027 71.1281 259.299 71.1281Z" fill="#C5DBF4"/>
<path d="M234.268 85.2077H189.422C187.694 85.2077 186.293 86.6085 186.293 88.3365V90.5266C186.293 92.2546 187.694 93.6554 189.422 93.6554H234.268C235.996 93.6554 237.397 92.2546 237.397 90.5266V88.3365C237.397 86.6085 235.996 85.2077 234.268 85.2077Z" fill="#C5DBF4"/>
<path fill-rule="evenodd" clip-rule="evenodd" d="M167.521 94.907C174.432 94.907 180.036 89.3033 180.036 82.3918C180.036 75.4802 174.432 69.8766 167.521 69.8766C160.609 69.8766 155.005 75.4802 155.005 82.3918C155.005 89.3033 160.609 94.907 167.521 94.907Z" fill="#C5DBF4"/>
<path d="M278.072 118.894H149.791C147.487 118.894 145.619 120.762 145.619 123.066V158.526C145.619 160.83 147.487 162.698 149.791 162.698H278.072C280.376 162.698 282.243 160.83 282.243 158.526V123.066C282.243 120.762 280.376 118.894 278.072 118.894Z" fill="white"/>
<path d="M259.299 132.035H189.422C187.694 132.035 186.293 133.436 186.293 135.164V135.477C186.293 137.205 187.694 138.606 189.422 138.606H259.299C261.027 138.606 262.428 137.205 262.428 135.477V135.164C262.428 133.436 261.027 132.035 259.299 132.035Z" fill="#C5DBF4"/>
<path d="M234.268 142.986H189.422C187.694 142.986 186.293 144.387 186.293 146.115V146.428C186.293 148.156 187.694 149.557 189.422 149.557H234.268C235.996 149.557 237.397 148.156 237.397 146.428V146.115C237.397 144.387 235.996 142.986 234.268 142.986Z" fill="#C5DBF4"/>
<path fill-rule="evenodd" clip-rule="evenodd" d="M167.521 153.311C174.432 153.311 180.036 147.708 180.036 140.796C180.036 133.885 174.432 128.281 167.521 128.281C160.609 128.281 155.005 133.885 155.005 140.796C155.005 147.708 160.609 153.311 167.521 153.311Z" fill="#C5DBF4"/>
<path d="M278.072 171.041H149.791C147.487 171.041 145.619 172.909 145.619 175.213V210.673C145.619 212.977 147.487 214.844 149.791 214.844H278.072C280.376 214.844 282.243 212.977 282.243 210.673V175.213C282.243 172.909 280.376 171.041 278.072 171.041Z" fill="white"/>
<path d="M259.299 184.182H189.422C187.694 184.182 186.293 185.583 186.293 187.311V187.624C186.293 189.352 187.694 190.753 189.422 190.753H259.299C261.027 190.753 262.428 189.352 262.428 187.624V187.311C262.428 185.583 261.027 184.182 259.299 184.182Z" fill="#C5DBF4"/>
<path d="M234.268 195.133H189.422C187.694 195.133 186.293 196.534 186.293 198.262V198.575C186.293 200.303 187.694 201.703 189.422 201.703H234.268C235.996 201.703 237.397 200.303 237.397 198.575V198.262C237.397 196.534 235.996 195.133 234.268 195.133Z" fill="#C5DBF4"/>
<path fill-rule="evenodd" clip-rule="evenodd" d="M167.521 205.458C174.432 205.458 180.036 199.854 180.036 192.943C180.036 186.031 174.432 180.428 167.521 180.428C160.609 180.428 155.005 186.031 155.005 192.943C155.005 199.854 160.609 205.458 167.521 205.458Z" fill="#AFB9C5"/>
<path d="M278.072 223.188H149.791C147.487 223.188 145.619 225.056 145.619 227.36V262.819C145.619 265.123 147.487 266.991 149.791 266.991H278.072C280.376 266.991 282.243 265.123 282.243 262.819V227.36C282.243 225.056 280.376 223.188 278.072 223.188Z" fill="white"/>
<path d="M259.299 236.329H189.422C187.694 236.329 186.293 237.73 186.293 239.458V239.77C186.293 241.498 187.694 242.899 189.422 242.899H259.299C261.027 242.899 262.428 241.498 262.428 239.77V239.458C262.428 237.73 261.027 236.329 259.299 236.329Z" fill="#C5DBF4"/>
<path d="M234.268 247.28H189.422C187.694 247.28 186.293 248.68 186.293 250.408V250.721C186.293 252.449 187.694 253.85 189.422 253.85H234.268C235.996 253.85 237.397 252.449 237.397 250.721V250.408C237.397 248.68 235.996 247.28 234.268 247.28Z" fill="#C5DBF4"/>
<path fill-rule="evenodd" clip-rule="evenodd" d="M167.521 257.605C174.432 257.605 180.036 252.001 180.036 245.089C180.036 238.178 174.432 232.574 167.521 232.574C160.609 232.574 155.005 238.178 155.005 245.089C155.005 252.001 160.609 257.605 167.521 257.605Z" fill="#C5DBF4"/>
<path fill-rule="evenodd" clip-rule="evenodd" d="M162.452 279.506C161.07 279.506 159.692 279.534 158.312 279.605C157.26 279.661 155.653 279.443 154.763 280.099C153.838 280.78 153.902 282.173 154.047 283.158C154.81 288.364 156.674 292.98 160.574 296.669C166.578 302.348 173.46 305.233 181.604 306.518C187.326 307.421 192.607 306.168 196.819 302.099C199.896 307.81 202.23 314.131 203.402 320.509C203.979 323.657 204.156 326.767 204.054 329.972C203.989 332.024 203.876 334.073 203.656 336.116C203.56 337.003 203.108 338.347 203.455 339.186C203.863 340.171 205.238 340.267 205.856 339.426C206.37 338.727 206.276 337.354 206.381 336.527C206.556 335.152 206.718 333.776 206.834 332.396C207.023 330.161 207.161 327.919 207.152 325.675C207.128 320.634 206.007 315.574 204.474 310.789C201.533 301.608 196.761 293.449 189.34 287.048C184.776 283.112 179.553 281.518 173.628 280.662C169.938 280.129 166.189 279.506 162.452 279.506Z" fill="#89C5CC"/>
<path fill-rule="evenodd" clip-rule="evenodd" d="M183.76 316.009C168.847 316.009 158.804 328.028 154.055 340.52C152.265 345.228 151.845 350.399 151.155 355.342C150.934 356.929 151.016 359.347 150.372 360.76C150.138 361.273 149.602 361.457 149.858 362.156C150.014 362.578 150.317 362.838 150.775 362.921C151.713 363.094 153.039 362.072 153.844 361.67C160.514 358.324 164.897 353.151 168.472 346.822C170.689 342.9 172.938 338.827 174.254 334.521C175.058 331.89 175.526 329.12 175.801 326.39C175.91 325.315 176.014 324.215 176.008 323.134C176.002 322.061 175.502 321.494 175.143 320.56C180.119 318.677 185.736 318.164 190.777 320.115C195.439 321.92 199.311 325.409 201.48 329.792C202.043 330.931 202.478 332.133 202.794 333.359C203.001 334.162 203.011 335.203 203.395 335.929C204.326 337.689 206.284 336.513 206.097 334.875C205.572 330.305 202.958 325.718 199.617 322.541C195.402 318.534 189.691 316.009 183.76 316.009Z" fill="#89C5CC"/>
<path d="M357.334 52.1467H208.195C203.587 52.1467 199.851 55.8822 199.851 60.4902V358.769C199.851 363.377 203.587 367.113 208.195 367.113H357.334C361.942 367.113 365.678 363.377 365.678 358.769V60.4902C365.678 55.8822 361.942 52.1467 357.334 52.1467Z" fill="#C5DBF4"/>
<path fill-rule="evenodd" clip-rule="evenodd" d="M282.243 347.297C290.883 347.297 297.887 340.293 297.887 331.653C297.887 323.013 290.883 316.009 282.243 316.009C273.604 316.009 266.599 323.013 266.599 331.653C266.599 340.293 273.604 347.297 282.243 347.297Z" fill="white"/>
<path fill-rule="evenodd" clip-rule="evenodd" d="M268.685 73.0053C269.837 73.0053 270.771 72.0719 270.771 70.9195C270.771 69.767 269.837 68.8336 268.685 68.8336C267.533 68.8336 266.599 69.767 266.599 70.9195C266.599 72.0719 267.533 73.0053 268.685 73.0053Z" fill="white"/>
<path d="M295.801 68.8336H278.071C276.919 68.8336 275.986 69.7675 275.986 70.9195C275.986 72.0715 276.919 73.0053 278.071 73.0053H295.801C296.953 73.0053 297.887 72.0715 297.887 70.9195C297.887 69.7675 296.953 68.8336 295.801 68.8336Z" fill="white"/>
<path d="M346.905 81.3488H218.624C216.32 81.3488 214.453 83.2166 214.453 85.5206V133.496C214.453 135.8 216.32 137.667 218.624 137.667H346.905C349.209 137.667 351.077 135.8 351.077 133.496V85.5206C351.077 83.2166 349.209 81.3488 346.905 81.3488Z" fill="white"/>
<path d="M296.844 98.2444H226.968C225.24 98.2444 223.839 99.6452 223.839 101.373V103.563C223.839 105.291 225.24 106.692 226.968 106.692H296.844C298.572 106.692 299.973 105.291 299.973 103.563V101.373C299.973 99.6452 298.572 98.2444 296.844 98.2444Z" fill="#C5DBF4"/>
<path d="M271.814 112.324H226.968C225.24 112.324 223.839 113.725 223.839 115.453V117.643C223.839 119.371 225.24 120.772 226.968 120.772H271.814C273.542 120.772 274.943 119.371 274.943 117.643V115.453C274.943 113.725 273.542 112.324 271.814 112.324Z" fill="#C5DBF4"/>
<path fill-rule="evenodd" clip-rule="evenodd" d="M336.476 116.809C340.508 116.809 343.776 113.54 343.776 109.508C343.776 105.476 340.508 102.208 336.476 102.208C332.444 102.208 329.175 105.476 329.175 109.508C329.175 113.54 332.444 116.809 336.476 116.809Z" fill="#C5DBF4"/>
<path fill-rule="evenodd" clip-rule="evenodd" d="M336.476 112.637C338.204 112.637 339.605 111.236 339.605 109.508C339.605 107.78 338.204 106.379 336.476 106.379C334.748 106.379 333.347 107.78 333.347 109.508C333.347 111.236 334.748 112.637 336.476 112.637Z" fill="#F2F2F2"/>
<path d="M346.905 146.011H218.624C216.32 146.011 214.453 147.878 214.453 150.182V185.642C214.453 187.946 216.32 189.814 218.624 189.814H346.905C349.209 189.814 351.077 187.946 351.077 185.642V150.182C351.077 147.878 349.209 146.011 346.905 146.011Z" fill="white"/>
<path d="M328.132 159.152H258.256C256.528 159.152 255.127 160.553 255.127 162.281V162.593C255.127 164.321 256.528 165.722 258.256 165.722H328.132C329.86 165.722 331.261 164.321 331.261 162.593V162.281C331.261 160.553 329.86 159.152 328.132 159.152Z" fill="#C5DBF4"/>
<path d="M303.102 170.103H258.256C256.528 170.103 255.127 171.503 255.127 173.231V173.544C255.127 175.272 256.528 176.673 258.256 176.673H303.102C304.83 176.673 306.231 175.272 306.231 173.544V173.231C306.231 171.503 304.83 170.103 303.102 170.103Z" fill="#C5DBF4"/>
<path fill-rule="evenodd" clip-rule="evenodd" d="M236.354 180.428C243.266 180.428 248.869 174.824 248.869 167.912C248.869 161.001 243.266 155.397 236.354 155.397C229.443 155.397 223.839 161.001 223.839 167.912C223.839 174.824 229.443 180.428 236.354 180.428Z" fill="#C5DBF4"/>
<path d="M346.905 198.157H218.624C216.32 198.157 214.453 200.025 214.453 202.329V237.789C214.453 240.093 216.32 241.961 218.624 241.961H346.905C349.209 241.961 351.077 240.093 351.077 237.789V202.329C351.077 200.025 349.209 198.157 346.905 198.157Z" fill="white"/>
<path d="M296.844 211.298H226.968C225.24 211.298 223.839 212.699 223.839 214.427V214.74C223.839 216.468 225.24 217.869 226.968 217.869H296.844C298.572 217.869 299.973 216.468 299.973 214.74V214.427C299.973 212.699 298.572 211.298 296.844 211.298Z" fill="#C5DBF4"/>
<path d="M271.814 222.249H226.968C225.24 222.249 223.839 223.65 223.839 225.378V225.691C223.839 227.419 225.24 228.82 226.968 228.82H271.814C273.542 228.82 274.943 227.419 274.943 225.691V225.378C274.943 223.65 273.542 222.249 271.814 222.249Z" fill="#AFB9C5"/>
<path fill-rule="evenodd" clip-rule="evenodd" d="M336.476 227.36C340.508 227.36 343.776 224.091 343.776 220.059C343.776 216.027 340.508 212.758 336.476 212.758C332.444 212.758 329.175 216.027 329.175 220.059C329.175 224.091 332.444 227.36 336.476 227.36Z" fill="#C5DBF4"/>
<path fill-rule="evenodd" clip-rule="evenodd" d="M336.476 223.188C338.204 223.188 339.605 221.787 339.605 220.059C339.605 218.331 338.204 216.93 336.476 216.93C334.748 216.93 333.347 218.331 333.347 220.059C333.347 221.787 334.748 223.188 336.476 223.188Z" fill="#F2F2F2"/>
<path d="M346.905 250.304H218.624C216.32 250.304 214.453 252.172 214.453 254.476V289.936C214.453 292.24 216.32 294.107 218.624 294.107H346.905C349.209 294.107 351.077 292.24 351.077 289.936V254.476C351.077 252.172 349.209 250.304 346.905 250.304Z" fill="white"/>
<path d="M328.132 263.445H258.256C256.528 263.445 255.127 264.846 255.127 266.574V266.887C255.127 268.615 256.528 270.016 258.256 270.016H328.132C329.86 270.016 331.261 268.615 331.261 266.887V266.574C331.261 264.846 329.86 263.445 328.132 263.445Z" fill="#C5DBF4"/>
<path d="M303.102 274.396H258.256C256.528 274.396 255.127 275.797 255.127 277.525V277.838C255.127 279.566 256.528 280.966 258.256 280.966H303.102C304.83 280.966 306.231 279.566 306.231 277.838V277.525C306.231 275.797 304.83 274.396 303.102 274.396Z" fill="#C5DBF4"/>
<path fill-rule="evenodd" clip-rule="evenodd" d="M236.354 284.721C243.266 284.721 248.869 279.117 248.869 272.206C248.869 265.294 243.266 259.691 236.354 259.691C229.443 259.691 223.839 265.294 223.839 272.206C223.839 279.117 229.443 284.721 236.354 284.721Z" fill="#C5DBF4"/>
<path d="M609.724 78.22H277.029C272.421 78.22 268.685 81.9555 268.685 86.5635V430.732C268.685 435.34 272.421 439.075 277.029 439.075H609.724C614.332 439.075 618.068 435.34 618.068 430.732V86.5635C618.068 81.9555 614.332 78.22 609.724 78.22Z" fill="#F2F2F2"/>
<path d="M593.037 123.066H536.719C532.111 123.066 528.376 126.802 528.376 131.41V199.2C528.376 203.808 532.111 207.544 536.719 207.544H593.037C597.645 207.544 601.381 203.808 601.381 199.2V131.41C601.381 126.802 597.645 123.066 593.037 123.066Z" fill="white"/>
<path fill-rule="evenodd" clip-rule="evenodd" d="M564.878 172.084C574.095 172.084 581.565 164.614 581.565 155.397C581.565 146.181 574.095 138.71 564.878 138.71C555.662 138.71 548.191 146.181 548.191 155.397C548.191 164.614 555.662 172.084 564.878 172.084Z" fill="#C5DBF4"/>
<path d="M587.823 176.256H541.934C540.206 176.256 538.805 177.657 538.805 179.385C538.805 181.113 540.206 182.513 541.934 182.513H587.823C589.551 182.513 590.952 181.113 590.952 179.385C590.952 177.657 589.551 176.256 587.823 176.256Z" fill="#C5DBF4"/>
<path d="M579.479 186.685H550.277C548.549 186.685 547.148 188.086 547.148 189.814C547.148 191.542 548.549 192.943 550.277 192.943H579.479C581.207 192.943 582.608 191.542 582.608 189.814C582.608 188.086 581.207 186.685 579.479 186.685Z" fill="#C5DBF4"/>
<path d="M268.685 86.5635C268.685 81.9558 272.421 78.22 277.029 78.22H609.724C614.332 78.22 618.068 81.9558 618.068 86.5635V106.379H268.685V86.5635Z" fill="#C5DBF4"/>
<path fill-rule="evenodd" clip-rule="evenodd" d="M282.243 96.9929C284.547 96.9929 286.415 95.125 286.415 92.8211C286.415 90.5173 284.547 88.6494 282.243 88.6494C279.939 88.6494 278.071 90.5173 278.071 92.8211C278.071 95.125 279.939 96.9929 282.243 96.9929Z" fill="#F2F2F2"/>
<path fill-rule="evenodd" clip-rule="evenodd" d="M294.758 96.9929C297.062 96.9929 298.93 95.125 298.93 92.8211C298.93 90.5173 297.062 88.6494 294.758 88.6494C292.455 88.6494 290.587 90.5173 290.587 92.8211C290.587 95.125 292.455 96.9929 294.758 96.9929Z" fill="#F2F2F2"/>
<path fill-rule="evenodd" clip-rule="evenodd" d="M307.274 96.9929C309.578 96.9929 311.445 95.125 311.445 92.8211C311.445 90.5173 309.578 88.6494 307.274 88.6494C304.97 88.6494 303.102 90.5173 303.102 92.8211C303.102 95.125 304.97 96.9929 307.274 96.9929Z" fill="#F2F2F2"/>
<path d="M593.037 215.887H536.719C532.111 215.887 528.376 219.623 528.376 224.231V409.873C528.376 414.481 532.111 418.216 536.719 418.216H593.037C597.645 418.216 601.381 414.481 601.381 409.873V224.231C601.381 219.623 597.645 215.887 593.037 215.887Z" fill="white"/>
<path d="M578.436 234.66H551.32C549.016 234.66 547.148 236.528 547.148 238.832V257.605C547.148 259.909 549.016 261.776 551.32 261.776H578.436C580.74 261.776 582.608 259.909 582.608 257.605V238.832C582.608 236.528 580.74 234.66 578.436 234.66Z" fill="#C5DBF4"/>
<path d="M578.436 270.12H551.32C549.016 270.12 547.148 271.988 547.148 274.292V292.021C547.148 294.325 549.016 296.193 551.32 296.193H578.436C580.74 296.193 582.608 294.325 582.608 292.021V274.292C582.608 271.988 580.74 270.12 578.436 270.12Z" fill="#AFB9C5"/>
<path d="M578.436 304.537H551.32C549.016 304.537 547.148 306.404 547.148 308.708V326.438C547.148 328.742 549.016 330.61 551.32 330.61H578.436C580.74 330.61 582.608 328.742 582.608 326.438V308.708C582.608 306.404 580.74 304.537 578.436 304.537Z" fill="#C5DBF4"/>
<path d="M578.436 373.37H551.32C549.016 373.37 547.148 375.238 547.148 377.542V395.272C547.148 397.576 549.016 399.444 551.32 399.444H578.436C580.74 399.444 582.608 397.576 582.608 395.272V377.542C582.608 375.238 580.74 373.37 578.436 373.37Z" fill="#C5DBF4"/>
<path d="M578.436 338.953H551.32C549.016 338.953 547.148 340.821 547.148 343.125V360.855C547.148 363.159 549.016 365.027 551.32 365.027H578.436C580.74 365.027 582.608 363.159 582.608 360.855V343.125C582.608 340.821 580.74 338.953 578.436 338.953Z" fill="#C5DBF4"/>
<path d="M515.86 124.109H289.544C287.24 124.109 285.372 125.977 285.372 128.281V168.955C285.372 171.259 287.24 173.127 289.544 173.127H515.86C518.164 173.127 520.032 171.259 520.032 168.955V128.281C520.032 125.977 518.164 124.109 515.86 124.109Z" fill="white"/>
<path d="M465.799 138.815H297.887C296.159 138.815 294.758 140.215 294.758 141.943V143.038C294.758 144.766 296.159 146.167 297.887 146.167H465.799C467.527 146.167 468.928 144.766 468.928 143.038V141.943C468.928 140.215 467.527 138.815 465.799 138.815Z" fill="#C5DBF4"/>
<path d="M408.538 151.069H297.887C296.159 151.069 294.758 152.47 294.758 154.198V155.293C294.758 157.021 296.159 158.422 297.887 158.422H408.538C410.266 158.422 411.667 157.021 411.667 155.293V154.198C411.667 152.47 410.266 151.069 408.538 151.069Z" fill="#C5DBF4"/>
<path fill-rule="evenodd" clip-rule="evenodd" d="M494.954 155.919C498.986 155.919 502.254 152.65 502.254 148.618C502.254 144.586 498.986 141.318 494.954 141.318C490.922 141.318 487.653 144.586 487.653 148.618C487.653 152.65 490.922 155.919 494.954 155.919Z" fill="#C5DBF4"/>
<path fill-rule="evenodd" clip-rule="evenodd" d="M494.954 151.747C496.682 151.747 498.083 150.346 498.083 148.618C498.083 146.89 496.682 145.489 494.954 145.489C493.226 145.489 491.825 146.89 491.825 148.618C491.825 150.346 493.226 151.747 494.954 151.747Z" fill="#F2F2F2"/>
<path d="M515.86 181.47H289.544C287.24 181.47 285.372 183.338 285.372 185.642V217.973C285.372 220.277 287.24 222.145 289.544 222.145H515.86C518.164 222.145 520.032 220.277 520.032 217.973V185.642C520.032 183.338 518.164 181.47 515.86 181.47Z" fill="white"/>
<path d="M465.878 193.673H297.809C296.124 193.673 294.758 195.039 294.758 196.723C294.758 198.408 296.124 199.774 297.809 199.774H465.878C467.563 199.774 468.928 198.408 468.928 196.723C468.928 195.039 467.563 193.673 465.878 193.673Z" fill="#C5DBF4"/>
<path d="M408.616 203.841H297.809C296.124 203.841 294.758 205.207 294.758 206.892C294.758 208.577 296.124 209.943 297.809 209.943H408.616C410.301 209.943 411.667 208.577 411.667 206.892C411.667 205.207 410.301 203.841 408.616 203.841Z" fill="#C5DBF4"/>
<path fill-rule="evenodd" clip-rule="evenodd" d="M494.954 209.108C498.986 209.108 502.254 205.84 502.254 201.808C502.254 197.776 498.986 194.507 494.954 194.507C490.922 194.507 487.653 197.776 487.653 201.808C487.653 205.84 490.922 209.108 494.954 209.108Z" fill="#C5DBF4"/>
<path fill-rule="evenodd" clip-rule="evenodd" d="M494.954 204.936C496.682 204.936 498.083 203.536 498.083 201.808C498.083 200.08 496.682 198.679 494.954 198.679C493.226 198.679 491.825 200.08 491.825 201.808C491.825 203.536 493.226 204.936 494.954 204.936Z" fill="#F2F2F2"/>
<path d="M515.86 230.488H289.544C287.24 230.488 285.372 232.356 285.372 234.66V266.991C285.372 269.295 287.24 271.163 289.544 271.163H515.86C518.164 271.163 520.032 269.295 520.032 266.991V234.66C520.032 232.356 518.164 230.488 515.86 230.488Z" fill="white"/>
<path d="M465.878 242.691H297.809C296.124 242.691 294.758 244.057 294.758 245.741C294.758 247.426 296.124 248.792 297.809 248.792H465.878C467.563 248.792 468.928 247.426 468.928 245.741C468.928 244.057 467.563 242.691 465.878 242.691Z" fill="#C5DBF4"/>
<path d="M408.616 252.859H297.809C296.124 252.859 294.758 254.225 294.758 255.91C294.758 257.595 296.124 258.96 297.809 258.96H408.616C410.301 258.96 411.667 257.595 411.667 255.91C411.667 254.225 410.301 252.859 408.616 252.859Z" fill="#C5DBF4"/>
<path fill-rule="evenodd" clip-rule="evenodd" d="M494.954 258.126C498.986 258.126 502.254 254.858 502.254 250.826C502.254 246.794 498.986 243.525 494.954 243.525C490.922 243.525 487.653 246.794 487.653 250.826C487.653 254.858 490.922 258.126 494.954 258.126Z" fill="#C5DBF4"/>
<path fill-rule="evenodd" clip-rule="evenodd" d="M494.954 253.954C496.682 253.954 498.083 252.554 498.083 250.826C498.083 249.097 496.682 247.697 494.954 247.697C493.226 247.697 491.825 249.097 491.825 250.826C491.825 252.554 493.226 253.954 494.954 253.954Z" fill="#AFB9C5"/>
<path d="M515.86 377.542H289.544C287.24 377.542 285.372 379.41 285.372 381.714V414.045C285.372 416.349 287.24 418.216 289.544 418.216H515.86C518.164 418.216 520.032 416.349 520.032 414.045V381.714C520.032 379.41 518.164 377.542 515.86 377.542Z" fill="white"/>
<path d="M465.878 389.744H297.809C296.124 389.744 294.758 391.11 294.758 392.795C294.758 394.48 296.124 395.845 297.809 395.845H465.878C467.563 395.845 468.928 394.48 468.928 392.795C468.928 391.11 467.563 389.744 465.878 389.744Z" fill="#C5DBF4"/>
<path d="M408.616 399.913H297.809C296.124 399.913 294.758 401.279 294.758 402.964C294.758 404.648 296.124 406.014 297.809 406.014H408.616C410.301 406.014 411.667 404.648 411.667 402.964C411.667 401.279 410.301 399.913 408.616 399.913Z" fill="#C5DBF4"/>
<path fill-rule="evenodd" clip-rule="evenodd" d="M494.954 405.18C498.986 405.18 502.254 401.911 502.254 397.879C502.254 393.847 498.986 390.579 494.954 390.579C490.922 390.579 487.653 393.847 487.653 397.879C487.653 401.911 490.922 405.18 494.954 405.18Z" fill="#C5DBF4"/>
<path fill-rule="evenodd" clip-rule="evenodd" d="M494.954 401.008C496.682 401.008 498.083 399.607 498.083 397.879C498.083 396.151 496.682 394.75 494.954 394.75C493.226 394.75 491.825 396.151 491.825 397.879C491.825 399.607 493.226 401.008 494.954 401.008Z" fill="#F2F2F2"/>
<path d="M515.86 328.524H289.544C287.24 328.524 285.372 330.392 285.372 332.696V365.027C285.372 367.331 287.24 369.199 289.544 369.199H515.86C518.164 369.199 520.032 367.331 520.032 365.027V332.696C520.032 330.392 518.164 328.524 515.86 328.524Z" fill="white"/>
<path d="M465.878 340.726H297.809C296.124 340.726 294.758 342.092 294.758 343.777C294.758 345.462 296.124 346.828 297.809 346.828H465.878C467.563 346.828 468.928 345.462 468.928 343.777C468.928 342.092 467.563 340.726 465.878 340.726Z" fill="#C5DBF4"/>
<path d="M408.616 350.895H297.809C296.124 350.895 294.758 352.261 294.758 353.946C294.758 355.63 296.124 356.996 297.809 356.996H408.616C410.301 356.996 411.667 355.63 411.667 353.946C411.667 352.261 410.301 350.895 408.616 350.895Z" fill="#C5DBF4"/>
<path fill-rule="evenodd" clip-rule="evenodd" d="M494.954 356.162C498.986 356.162 502.254 352.893 502.254 348.861C502.254 344.829 498.986 341.561 494.954 341.561C490.922 341.561 487.653 344.829 487.653 348.861C487.653 352.893 490.922 356.162 494.954 356.162Z" fill="#C5DBF4"/>
<path fill-rule="evenodd" clip-rule="evenodd" d="M494.954 351.99C496.682 351.99 498.083 350.589 498.083 348.861C498.083 347.133 496.682 345.733 494.954 345.733C493.226 345.733 491.825 347.133 491.825 348.861C491.825 350.589 493.226 351.99 494.954 351.99Z" fill="#F2F2F2"/>
<path d="M515.86 279.506H289.544C287.24 279.506 285.372 281.374 285.372 283.678V316.009C285.372 318.313 287.24 320.181 289.544 320.181H515.86C518.164 320.181 520.032 318.313 520.032 316.009V283.678C520.032 281.374 518.164 279.506 515.86 279.506Z" fill="white"/>
<path d="M465.878 291.709H297.809C296.124 291.709 294.758 293.074 294.758 294.759C294.758 296.444 296.124 297.81 297.809 297.81H465.878C467.563 297.81 468.928 296.444 468.928 294.759C468.928 293.074 467.563 291.709 465.878 291.709Z" fill="#C5DBF4"/>
<path d="M408.616 301.877H297.809C296.124 301.877 294.758 303.243 294.758 304.928C294.758 306.613 296.124 307.978 297.809 307.978H408.616C410.301 307.978 411.667 306.613 411.667 304.928C411.667 303.243 410.301 301.877 408.616 301.877Z" fill="#C5DBF4"/>
<path fill-rule="evenodd" clip-rule="evenodd" d="M494.954 307.144C498.986 307.144 502.254 303.875 502.254 299.843C502.254 295.811 498.986 292.543 494.954 292.543C490.922 292.543 487.653 295.811 487.653 299.843C487.653 303.875 490.922 307.144 494.954 307.144Z" fill="#C5DBF4"/>
<path fill-rule="evenodd" clip-rule="evenodd" d="M494.954 302.972C496.682 302.972 498.083 301.572 498.083 299.844C498.083 298.115 496.682 296.715 494.954 296.715C493.226 296.715 491.825 298.115 491.825 299.844C491.825 301.572 493.226 302.972 494.954 302.972Z" fill="#F2F2F2"/>
<path fill-rule="evenodd" clip-rule="evenodd" d="M704.617 255.911C700.502 253.121 695.032 252.39 690.109 252.39C670.882 252.39 652.809 259.524 637.196 270.153C628.641 275.977 620.988 283.394 614.232 291.116C610.331 295.575 606.854 300.396 604.392 305.76C602.73 309.38 601.59 313.152 600.818 317.042C599.876 321.784 599.127 326.621 598.789 331.441C598.656 333.339 597.553 343.411 600.709 343.582C600.69 343.83 600.686 344.067 600.706 344.279C593.853 354.994 589.62 367.551 585.693 379.456C582.277 389.816 579.233 400.263 577.258 410.982C574.656 425.091 572.947 439.415 572.135 453.728C571.961 456.804 571.841 459.882 571.737 462.961C571.65 465.589 571.561 468.216 571.475 470.844C571.379 473.788 570.86 477.178 571.329 480.104C571.736 482.653 573.942 482.267 574.04 479.731C574.158 476.668 574.138 473.598 574.273 470.533C574.451 466.465 574.635 462.396 574.834 458.329C576.22 430.074 581.419 402.234 591.015 375.544C594.899 364.743 599.348 354.519 605.067 344.528C610.095 335.743 616.145 327.238 622.327 319.318C628.335 311.62 634.584 304.102 641.946 297.58C647.921 292.288 654.493 287.678 661.249 283.388C669.83 277.94 678.394 272.624 687.689 268.442C692.521 266.268 697.443 264.322 702.313 262.235C703.189 261.861 704.127 261.497 704.97 261.062C707.781 259.612 706.856 257.429 704.617 255.911Z" fill="#C1DEE2"/>
<path fill-rule="evenodd" clip-rule="evenodd" d="M627.265 354.598C635.063 354.598 642.002 355.611 649.187 358.71C655.389 361.385 661.042 364.926 666.53 368.78C674.249 374.203 680.329 380.512 684.585 388.874C687.128 393.868 688.994 400.936 687.285 406.384C685.275 412.801 679.751 418.153 672.477 417.022C667.979 416.324 663.856 413.346 660.437 410.544C656.347 407.191 653.073 403.16 650.37 398.682C645.96 391.379 643.37 383.123 639.623 375.491C637.846 371.868 636.128 368.221 633.999 364.779C632.945 363.074 631.823 361.386 630.224 360.119C629.369 359.441 625.763 358.269 627.141 356.747C606.919 357.012 589.003 372.543 585.121 391.769C584.76 393.56 584.477 395.367 584.178 397.17C583.99 398.308 584.066 402.507 583.048 403.234C580.804 404.838 581.747 399.964 581.844 399.262C582.093 397.449 582.358 395.637 582.636 393.827C584.153 383.988 588.533 374.842 595.838 367.825C604.191 359.802 615.462 354.598 627.265 354.598Z" fill="#89C5CC"/>
<path fill-rule="evenodd" clip-rule="evenodd" d="M65.2482 330.335C84.716 362.995 107.39 394.619 121.007 430.328C120.458 426.119 119.876 421.914 119.224 417.716C115.77 395.459 111.475 373.364 106.964 351.297C104.666 340.061 102.235 328.865 99.7423 317.671C98.4021 311.659 97.0776 305.643 95.7092 299.637C95.3776 298.181 95.0929 295.639 94.6788 293.064C107.912 336.489 120.673 379.946 130.007 424.414C131.232 430.25 132.275 436.076 133.129 441.891C133.421 440.564 133.709 439.238 134.022 437.914C137.8 422.054 143.465 406.321 150.211 391.49C153.436 384.399 157.139 377.463 161.501 370.999C164.221 366.97 170.635 362.181 173.115 358.054C159.547 382.94 154.648 414.078 146.813 441.133C144.901 447.736 142.977 454.327 141.091 460.93C152.906 437.236 171.236 417.769 196.723 409.334C165.873 429.717 147.369 465.413 134.9 501.922C134.859 502.355 134.81 502.788 134.767 503.222C138.437 496.258 143.058 489.959 149.322 485.548C162.73 476.103 177.602 478.855 190.608 486.956C180.401 480.468 161.954 486.376 153.366 492.971C147.218 497.691 141.963 504.024 137.401 510.203C136.308 511.684 134.815 513.412 133.239 515.255C131.03 529.597 127.43 543.84 122.332 557.97C123.174 553.914 122.566 547.428 122.799 544.404C122.824 544.078 122.845 543.749 122.87 543.424C122.095 546.517 121.347 549.575 120.626 552.585C122.059 546.842 122.837 540.848 123.445 534.791C123.601 532.189 123.755 529.586 123.915 526.984C123.864 522.044 123.661 517.086 123.317 512.118C122.098 507.291 120.731 502.738 119.604 498.951C115.54 485.288 109.579 472.199 102.244 459.987C95.5518 448.843 87.5404 438.75 78.292 429.621C73.3063 424.7 68.0886 420.016 62.9443 415.265C61.0842 413.547 57.7592 409.324 54.8836 407.123C75.8262 418.669 97.3821 431.159 112.66 449.763C110.868 442.885 108.923 436.104 106.866 429.459C96.4247 395.745 83.2423 360.806 65.2482 330.335Z" fill="#C5DBF4"/>
<path fill-rule="evenodd" clip-rule="evenodd" d="M86.1716 515.209C86.1716 552.65 89.1365 583 128.932 583C168.727 583 171.692 552.65 171.692 515.209" fill="#C5DBF4"/>
<path d="M535.676 36.5027C535.676 34.7747 534.275 33.3739 532.547 33.3739C530.819 33.3739 529.419 34.7747 529.419 36.5027V56.3184C529.419 58.0464 530.819 59.4472 532.547 59.4472C534.275 59.4472 535.676 58.0464 535.676 56.3184V36.5027Z" fill="#C5DBF4"/>
<path d="M550.277 19.8157C550.277 18.0877 548.876 16.6869 547.148 16.6869C545.42 16.6869 544.02 18.0877 544.02 19.8157V56.3184C544.02 58.0464 545.42 59.4472 547.148 59.4472C548.876 59.4472 550.277 58.0464 550.277 56.3184V19.8157Z" fill="#C5DBF4"/>
<path d="M564.878 11.4723C564.878 9.74428 563.477 8.34347 561.749 8.34347C560.021 8.34347 558.621 9.74428 558.621 11.4723V56.3184C558.621 58.0464 560.021 59.4472 561.749 59.4472C563.477 59.4472 564.878 58.0464 564.878 56.3184V11.4723Z" fill="#C5DBF4"/>
<path d="M579.479 19.8157C579.479 18.0877 578.078 16.6869 576.35 16.6869C574.622 16.6869 573.222 18.0877 573.222 19.8157V56.3184C573.222 58.0464 574.622 59.4472 576.35 59.4472C578.078 59.4472 579.479 58.0464 579.479 56.3184V19.8157Z" fill="#C5DBF4"/>
<path d="M594.08 3.1288C594.08 1.40081 592.68 0 590.952 0C589.224 0 587.823 1.40081 587.823 3.1288V56.3184C587.823 58.0464 589.224 59.4472 590.952 59.4472C592.68 59.4472 594.08 58.0464 594.08 56.3184V3.1288Z" fill="#C5DBF4"/>
<path fill-rule="evenodd" clip-rule="evenodd" d="M16.295 319.405C16.295 307.787 25.6835 298.279 37.1537 298.279V319.405L22.8989 334.782C18.8439 331.022 16.295 325.507 16.295 319.405Z" fill="#F2F2F2"/>
<path fill-rule="evenodd" clip-rule="evenodd" d="M36.6017 319.138H57.6661C57.6661 324.583 55.4449 329.685 51.9334 333.393C48.0713 337.448 42.5713 339.996 36.6017 339.996C31.1029 339.996 26.0695 337.797 22.2064 334.32L36.6017 319.138Z" fill="#AFB9C5"/>
<path fill-rule="evenodd" clip-rule="evenodd" d="M58.0124 319.138C58.0124 307.668 48.6239 298.279 37.1537 298.279V319.138H58.0124ZM26.7244 298.279L35.0678 317.052L16.295 308.708C18.1514 303.842 22.32 300.135 26.7244 298.279Z" fill="#C5DBF4"/>
<path fill-rule="evenodd" clip-rule="evenodd" d="M695.001 328.711C692.997 330.838 690.158 332.174 687 332.174C680.934 332.174 676.015 327.272 676.015 321.224C676.015 315.176 680.934 310.273 687 310.273V289.936C669.741 289.936 655.613 304.018 655.613 321.224C655.613 338.429 669.741 352.512 687 352.512C696.067 352.512 704.261 348.688 709.846 342.606L695.001 328.711Z" fill="#F2F2F2"/>
<path fill-rule="evenodd" clip-rule="evenodd" d="M686.901 289.936V310.273C692.949 310.273 697.852 315.176 697.852 321.224H718.19C718.19 304.018 704.107 289.936 686.901 289.936Z" fill="#AFB9C5"/>
<path fill-rule="evenodd" clip-rule="evenodd" d="M697.432 321.224C697.432 324.777 695.758 327.935 693.159 329.975L705.948 346.254C713.391 340.426 718.19 331.391 718.19 321.224H697.432Z" fill="#C5DBF4"/>
<path fill-rule="evenodd" clip-rule="evenodd" d="M496.098 41.2C494.556 42.8311 492.372 43.8554 489.943 43.8554C485.276 43.8554 481.494 40.0965 481.494 35.4598C481.494 30.823 485.276 27.0641 489.943 27.0641V11.4723C476.667 11.4723 465.8 22.269 465.8 35.4598C465.8 48.6505 476.667 59.4472 489.943 59.4472C496.918 59.4472 503.22 56.5155 507.517 51.8526L496.098 41.2Z" fill="#F2F2F2"/>
<path fill-rule="evenodd" clip-rule="evenodd" d="M489.787 11.4723V27.0641C494.424 27.0641 498.183 30.823 498.183 35.4598H513.775C513.775 22.269 502.978 11.4723 489.787 11.4723Z" fill="#AFB9C5"/>
<path fill-rule="evenodd" clip-rule="evenodd" d="M498.207 35.4597C498.207 38.1247 496.951 40.4936 495.002 42.023L504.593 54.2326C510.176 49.8614 513.775 43.0857 513.775 35.4597H498.207Z" fill="#C5DBF4"/>
<path fill-rule="evenodd" clip-rule="evenodd" d="M116.424 59.4326C116.42 59.443 116.416 59.4534 116.409 59.4658C116.416 59.4554 116.424 59.4139 116.424 59.4326Z" fill="#C5DBF4"/>
<path fill-rule="evenodd" clip-rule="evenodd" d="M116.415 59.4488C116.415 59.451 116.413 59.4553 116.413 59.4597C116.413 59.4488 116.432 59.4163 116.415 59.4488Z" fill="#C5DBF4"/>
<path fill-rule="evenodd" clip-rule="evenodd" d="M116.487 59.272C116.472 59.3137 116.453 59.3534 116.437 59.3951C116.445 59.3742 116.453 59.3575 116.462 59.3367C116.245 59.879 116.382 59.5265 116.487 59.272Z" fill="#C5DBF4"/>
<path fill-rule="evenodd" clip-rule="evenodd" d="M116.439 59.3982C116.431 59.4169 116.423 59.4376 116.415 59.4563C116.354 59.5725 116.439 59.3982 116.439 59.3982Z" fill="#C5DBF4"/>
<path fill-rule="evenodd" clip-rule="evenodd" d="M116.416 59.4491C116.416 59.4471 116.416 59.4471 116.418 59.4451C116.416 59.4471 116.416 59.4471 116.416 59.4491Z" fill="#C5DBF4"/>
<path fill-rule="evenodd" clip-rule="evenodd" d="M116.406 59.4637C116.394 59.4886 116.464 59.3683 116.406 59.4637V59.4637Z" fill="#C5DBF4"/>
<path fill-rule="evenodd" clip-rule="evenodd" d="M116.415 59.4491L116.419 59.4451C116.417 59.4471 116.417 59.4491 116.415 59.4491Z" fill="#C5DBF4"/>
<path d="M161.263 5.21467H70.5277C68.2237 5.21467 66.356 7.08242 66.356 9.3864V66.7478C66.356 69.0518 68.2237 70.9195 70.5277 70.9195H161.263C163.567 70.9195 165.435 69.0518 165.435 66.7478V9.3864C165.435 7.08242 163.567 5.21467 161.263 5.21467Z" fill="#C5DBF4"/>
<path fill-rule="evenodd" clip-rule="evenodd" d="M103.902 23.9875L74.6995 70.9195H133.104L103.902 23.9875Z" fill="#AFB9C5"/>
<path fill-rule="evenodd" clip-rule="evenodd" d="M132.582 36.5027L107.03 70.9195H158.134L132.582 36.5027Z" fill="#C5DBF4"/>
<path fill-rule="evenodd" clip-rule="evenodd" d="M143.533 36.5027C148.717 36.5027 152.919 32.3003 152.919 27.1163C152.919 21.9323 148.717 17.7299 143.533 17.7299C138.349 17.7299 134.147 21.9323 134.147 27.1163C134.147 32.3003 138.349 36.5027 143.533 36.5027Z" fill="white"/>
<path fill-rule="evenodd" clip-rule="evenodd" d="M613.889 504.765C613.893 504.776 613.897 504.786 613.903 504.799C613.897 504.788 613.889 504.747 613.889 504.765Z" fill="#C5DBF4"/>
<path fill-rule="evenodd" clip-rule="evenodd" d="M613.898 504.782C613.898 504.784 613.901 504.788 613.901 504.792C613.901 504.782 613.881 504.749 613.898 504.782Z" fill="#C5DBF4"/>
<path fill-rule="evenodd" clip-rule="evenodd" d="M613.826 504.605C613.841 504.646 613.86 504.686 613.876 504.728C613.868 504.707 613.86 504.69 613.851 504.669C614.068 505.212 613.93 504.859 613.826 504.605Z" fill="#C5DBF4"/>
<path fill-rule="evenodd" clip-rule="evenodd" d="M613.873 504.731C613.881 504.75 613.89 504.77 613.898 504.789C613.958 504.905 613.873 504.731 613.873 504.731Z" fill="#C5DBF4"/>
<path fill-rule="evenodd" clip-rule="evenodd" d="M613.897 504.782C613.897 504.78 613.897 504.78 613.895 504.778C613.897 504.78 613.897 504.78 613.897 504.782Z" fill="#C5DBF4"/>
<path fill-rule="evenodd" clip-rule="evenodd" d="M613.906 504.796C613.919 504.821 613.848 504.701 613.906 504.796V504.796Z" fill="#C5DBF4"/>
<path fill-rule="evenodd" clip-rule="evenodd" d="M613.898 504.782L613.894 504.778C613.896 504.78 613.896 504.782 613.898 504.782Z" fill="#C5DBF4"/>
<path d="M544.019 424.474H683.773C686.077 424.474 687.944 426.342 687.944 428.646V518.338C687.944 520.642 686.077 522.51 683.773 522.51H544.019C541.715 522.51 539.848 520.642 539.848 518.338V428.646C539.848 426.342 541.715 424.474 544.019 424.474Z" fill="#C5DBF4"/>
<path fill-rule="evenodd" clip-rule="evenodd" d="M632.955 452.633L675.772 522.51H590.137L632.955 452.633Z" fill="#AFB9C5"/>
<path fill-rule="evenodd" clip-rule="evenodd" d="M588.807 471.351L626.66 522.51H550.954L588.807 471.351Z" fill="#C5DBF4"/>
<path fill-rule="evenodd" clip-rule="evenodd" d="M572.7 471.406C564.924 471.406 558.621 465.103 558.621 457.326C558.621 449.55 564.924 443.247 572.7 443.247C580.476 443.247 586.78 449.55 586.78 457.326C586.78 465.103 580.476 471.406 572.7 471.406Z" fill="white"/>
</svg>
