<svg width="848" height="689" viewBox="0 0 848 689" fill="none" xmlns="http://www.w3.org/2000/svg">
<path fill-rule="evenodd" clip-rule="evenodd" d="M833.925 176.45C833.269 175.972 831.71 175.804 830.987 175.66C827.973 175.066 824.87 174.808 821.798 174.808C812.328 174.823 802.703 175.752 793.391 177.361C787.477 178.382 780.328 181.82 774.446 179.952C764.199 176.7 753.842 176.86 744.119 181.503C735.23 185.749 728.483 193.814 724.545 202.527C723.95 203.843 721.54 208.685 720.858 211.948C720.566 212.616 720.285 213.286 720.033 213.968C719.316 215.905 718.672 217.875 718.075 219.849C717.819 220.691 717.178 222.55 717.94 222.91C716.723 225.159 715.642 227.475 714.743 229.867C712.127 236.825 709.266 244.458 708.347 251.832C708.007 254.562 707.993 257.309 708.31 260.044C708.466 261.397 708.402 264.115 709.318 265.144C711.264 267.325 712.262 264.271 712.043 262.816C710.369 251.729 713.603 241.317 717.435 230.895C719.915 224.157 723.987 217.99 728.549 212.408C732.241 207.887 736.201 204.328 741.262 201.332C747.452 197.667 754.069 194.705 760.624 191.733C764.936 189.779 769.254 187.875 773.685 186.191C774.671 185.816 776.221 184.854 777.314 184.851C779.625 184.843 782.901 186.548 785.133 187.182C792.475 189.27 799.91 191.943 807.498 193.009C812.366 193.693 816.926 192.923 821.477 191.301C821.942 191.136 822.723 190.71 823.678 190.102C827.057 188.802 830.254 187.166 833.037 184.805C834.64 183.446 836.097 181.688 837.424 180.079C837.82 179.599 837.996 179.048 838.002 178.523C838.303 178.367 838.502 178.182 838.548 177.968C838.879 176.385 835.859 176.356 833.925 176.45Z" fill="#89C5CC"/>
<path fill-rule="evenodd" clip-rule="evenodd" d="M64.584 308.426C62.726 309.931 60.9037 311.467 59.1258 313.066C57.7708 314.285 55.373 315.744 54.8865 317.59C54.3809 319.509 55.9772 321.305 57.2382 322.465C63.9068 328.601 71.4159 332.748 80.6563 333.439C94.8845 334.501 107.267 330.867 119.612 323.718C128.284 318.696 134.028 311.267 135.282 301.237C145.609 305.528 155.597 311.445 164.085 318.705C168.273 322.288 171.88 326.257 175.216 330.656C177.353 333.475 179.42 336.339 181.338 339.313C182.171 340.604 183.019 342.897 184.396 343.64C186.012 344.514 187.966 343.144 187.886 341.348C187.818 339.852 186.204 338.118 185.448 336.895C184.195 334.865 182.922 332.848 181.582 330.874C179.413 327.677 177.171 324.527 174.726 321.536C169.231 314.814 162.24 309.263 154.992 304.529C141.089 295.446 125.83 289.724 108.913 289.239C98.5112 288.941 89.7605 292.495 80.865 297.802C75.3267 301.107 69.6096 304.356 64.584 308.426Z" fill="#C5DBF4"/>
<path fill-rule="evenodd" clip-rule="evenodd" d="M199.518 264.495C188.677 253.332 177.8 242.308 165.689 232.477C158.551 226.685 151.03 221.417 143.663 215.926C144.513 216.671 145.346 217.436 146.16 218.222C143.86 216.661 140.85 215.778 138.413 214.333C135.693 212.721 133.093 210.877 130.544 209.02C125.567 205.393 120.665 201.697 115.549 198.26C109.849 194.431 103.942 190.893 98.145 187.207C93.2252 184.08 88.2453 180.656 82.9821 178.1C80.1135 176.706 77.2381 175.055 74.3579 173.601C73.3938 173.115 63.6124 166.939 63.637 166.919C64.1777 166.513 69.1 168.825 69.8611 169.136C72.0848 170.045 74.2113 171.131 76.3491 172.214C75.1757 169.9 74.2468 167.467 73.7412 164.908C73.585 164.117 72.3335 158.366 72.9739 157.883C73.2938 157.642 76.4145 167.934 76.5742 168.922C76.7041 169.726 76.685 170.883 76.9481 171.644C77.3728 172.874 77.3514 172.502 78.2871 173.195C80.002 174.464 82.2783 175.257 84.1343 176.317C85.1352 176.876 88.2339 179.092 90.1003 179.723C95.7477 182.466 101.472 186.686 106.838 190.19C105.43 187.543 104.358 184.776 103.576 181.875C103.39 181.187 101.385 175.011 101.872 174.644C102.419 174.23 106.24 183.665 106.467 184.558C106.887 186.217 106.975 188.062 107.501 189.678C108.079 191.449 109.882 192.077 111.507 193.11C117.486 196.909 123.261 200.945 128.939 205.168C135.135 194.149 127.991 180.844 121.971 171.598C117.63 164.935 111.789 159.223 105.62 154.236C97.3875 147.58 87.9684 142.263 78.5609 137.399C67.5992 131.732 55.7517 128.22 43.4346 126.599C36.9926 125.75 30.4021 125.774 23.8949 126.046C20.7162 126.178 17.6651 126.599 14.6189 127.637C13.2459 128.105 11.919 128.694 10.6259 129.354C9.6434 129.855 7.26675 130.384 6.70183 131.132C2.05182 137.185 -0.327047 143.216 0.0362337 150.821C0.379694 158.02 2.65343 165.223 5.73915 171.645C9.17561 178.795 13.5953 185.285 19.3756 190.733C23.7857 194.889 28.7162 198.505 33.6141 202.075C51.0347 214.771 73.1211 225.814 95.6837 222.976C102.987 222.059 109.934 219.504 116.425 216.033C117.955 215.215 119.476 214.388 120.92 213.423C121.893 212.772 124.496 209.838 125.475 209.731C126.818 209.586 129.708 212.315 130.967 213.146C140.538 219.464 149.857 226.124 158.98 233.052C168.688 240.424 177.918 248.297 186.878 256.54C190.688 260.046 194.474 263.561 198.174 267.185C199.035 268.028 201.142 271.133 202.704 271.273C203.691 271.363 204.357 270.519 204.217 269.605C203.972 268.016 200.628 265.639 199.518 264.495Z" fill="#C1DEE2"/>
<path fill-rule="evenodd" clip-rule="evenodd" d="M822.544 221.169C818.346 220.252 813.709 220.322 809.432 220.397C786.493 220.71 763.968 231.57 749.308 248.923C736.828 263.695 733.396 282.062 730.93 300.629C730.686 302.472 730.582 304.303 730.444 306.151C730.414 306.548 730.37 306.901 730.322 307.235C729.353 308.101 728.843 309.112 729.418 310.222C727.282 314.897 725.475 319.689 723.924 324.633C719.361 339.184 714.72 354.012 717.578 369.312C718.247 360.892 719.652 352.282 721.333 344C721.429 343.524 721.534 343.053 721.642 342.583C721.654 342.533 721.664 342.483 721.675 342.434C722.27 339.898 723.043 337.438 723.983 335.017C723.993 334.99 724.003 334.964 724.013 334.938C724.137 334.619 724.269 334.302 724.399 333.985C724.669 333.329 724.946 332.674 725.239 332.023C725.339 331.8 725.433 331.576 725.526 331.351C726.895 327.995 727.472 324.213 728.699 320.742C728.992 319.953 729.299 319.166 729.62 318.383C729.64 318.337 729.658 318.292 729.678 318.246C730.547 316.14 731.506 314.061 732.522 312.002C733.073 311.588 733.368 310.56 733.844 309.625C733.941 309.441 734.711 308.213 734.94 307.505C735.538 306.349 736.132 305.194 736.734 304.039C736.717 304.046 736.699 304.052 736.68 304.06C737.282 302.951 737.887 301.848 738.486 300.748C738.618 300.507 738.751 300.266 738.884 300.023C739.099 299.638 739.315 299.253 739.529 298.868C741.538 295.273 743.669 291.749 745.881 288.269C746.671 287.027 748.557 285.246 748.919 283.852C748.933 283.799 748.935 283.751 748.944 283.702C753.745 276.958 759.271 270.739 765.9 265.811C765.099 266.678 763.395 269.616 762.946 270.199C761.567 271.98 760.071 273.638 758.571 275.317C755.881 278.325 753.256 281.427 750.923 284.708C746.657 290.708 742.977 297.022 739.497 303.464C739.465 303.501 739.428 303.537 739.397 303.576C737.648 305.732 736.547 308.989 735.289 311.455C740.27 309.148 745.779 307.645 750.89 305.596C755.989 303.554 760.948 301.279 765.736 298.609C772.1 295.058 778.702 291.051 784.714 286.516C791.604 282.242 797.395 276.359 802.506 270.185C808.553 262.88 814.095 255.512 817.523 246.643C819.207 242.285 820.531 237.74 821.317 233.142C821.351 232.943 821.394 232.725 821.442 232.499C822.246 230.911 822.964 229.288 823.567 227.627C824.524 224.992 826.785 222.095 822.544 221.169Z" fill="#69A1AC"/>
<path fill-rule="evenodd" clip-rule="evenodd" d="M111.037 252.03C109.722 250.606 108.245 249.32 106.51 248.403C106.071 248.172 102.805 246.621 102.592 246.96C102.096 247.753 110.642 251.574 111.037 252.03ZM126.526 242.515C126.515 242.575 127.647 244.497 127.956 245.088C128.612 246.345 129.218 247.625 129.788 248.909C128.945 246.643 128.077 244.54 126.526 242.515ZM47.3146 258.16C46.2237 258.511 44.9121 257.126 46.3271 256.785C47.4721 256.512 47.4159 256.448 47.93 255.525C48.3474 254.776 48.6046 253.863 48.971 253.077C49.748 251.411 50.6294 249.82 51.7114 248.331C54.0302 245.137 56.8553 242.386 60.024 240.067C65.5538 236.021 71.7542 232.322 78.3316 230.464C88.7894 227.51 100.692 227.328 111.166 229.376C117.654 230.644 123.581 232.85 127.889 238.074C130.042 240.683 131.732 243.741 132.471 247.108C132.664 247.988 132.627 248.967 132.868 249.829C133.24 251.155 133.076 250.801 134.626 251.059C136.318 251.34 138.008 251.627 139.698 251.92C144.124 252.686 148.575 253.498 152.887 254.741C154.307 255.149 155.694 255.649 157.051 256.229C158.076 256.667 162.16 258.045 162.656 259.377C163.482 261.594 160.714 260.589 159.854 260.105C159.1 259.683 158.327 259.288 157.543 258.925C155.567 258.011 153.509 257.304 151.404 256.741C149.129 256.133 146.808 255.679 144.495 255.223C142.34 254.8 140.176 254.414 138.008 254.045C136.804 253.841 135.6 253.641 134.395 253.443C133.982 253.374 133.257 253.018 133.311 253.554C130.778 253.065 128.039 253.135 125.459 253.001C122.298 252.836 119.126 252.701 115.955 252.799C113.668 252.871 111.379 253.021 109.103 253.329C107.773 253.508 106.465 253.771 105.16 254.103C104.444 254.286 101.618 254.674 101.228 255.298C101.395 255.03 104.514 255.291 104.911 255.275C106.499 255.216 108.074 255.058 109.656 254.882C112.592 254.553 115.528 254.382 118.472 254.407C118.461 254.924 116.45 255.845 115.959 256.187C114.858 256.956 113.803 257.794 112.819 258.713C111.087 260.332 109.012 262.337 107.814 264.257C108.167 263.69 109.909 262.955 110.527 262.523C111.518 261.831 112.489 261.093 113.408 260.304C114.255 259.575 115.046 258.787 115.824 257.983C116.602 257.179 117.657 255.506 118.68 254.971C118.742 254.938 119.188 255.29 119.44 255.17C119.696 255.05 120.014 254.446 120.078 254.422C121.029 254.055 122.836 254.512 123.837 254.558C126.431 254.678 129.024 254.834 131.615 254.977C132.419 255.021 133.101 254.838 133.405 255.43C133.727 256.063 133.135 257.723 132.967 258.412C132.341 260.967 131.232 263.258 129.484 265.239C126.212 268.948 122.175 271.42 117.617 273.074C100.155 279.409 81.5784 281.947 64.122 275.357C56.8952 272.628 46.0114 267.753 47.3146 258.16Z" fill="#89C5CC"/>
<g opacity="0.6">
<path fill-rule="evenodd" clip-rule="evenodd" d="M846.834 556.618C858.713 637.034 570.62 689.488 322.653 652.881C74.6845 616.276 -39.0714 473.327 79.2547 397.158C197.582 320.989 834.954 476.201 846.834 556.618Z" fill="#C5DBF4"/>
</g>
<path d="M340.001 29.545H163.962C158.523 29.545 154.114 33.9542 154.114 39.3933V391.471C154.114 396.91 158.523 401.319 163.962 401.319H340.001C345.44 401.319 349.849 396.91 349.849 391.471V39.3933C349.849 33.9542 345.44 29.545 340.001 29.545Z" fill="#F2F2F2"/>
<path fill-rule="evenodd" clip-rule="evenodd" d="M251.366 377.93C261.564 377.93 269.831 369.662 269.831 359.464C269.831 349.266 261.564 340.998 251.366 340.998C241.168 340.998 232.9 349.266 232.9 359.464C232.9 369.662 241.168 377.93 251.366 377.93Z" fill="white"/>
<path fill-rule="evenodd" clip-rule="evenodd" d="M235.362 54.1658C236.723 54.1658 237.824 53.0635 237.824 51.7037C237.824 50.3439 236.723 49.2416 235.362 49.2416C234.002 49.2416 232.9 50.3439 232.9 51.7037C232.9 53.0635 234.002 54.1658 235.362 54.1658Z" fill="white"/>
<path d="M267.369 49.2416H246.442C245.082 49.2416 243.979 50.3439 243.979 51.7037C243.979 53.0635 245.082 54.1658 246.442 54.1658H267.369C268.729 54.1658 269.831 53.0635 269.831 51.7037C269.831 50.3439 268.729 49.2416 267.369 49.2416Z" fill="white"/>
<path d="M327.69 64.0141H176.272C173.553 64.0141 171.348 66.2188 171.348 68.9383V125.566C171.348 128.286 173.553 130.49 176.272 130.49H327.69C330.41 130.49 332.614 128.286 332.614 125.566V68.9383C332.614 66.2188 330.41 64.0141 327.69 64.0141Z" fill="white"/>
<path d="M305.532 83.957H223.052C221.012 83.957 219.359 85.6104 219.359 87.6501V90.2353C219.359 92.2749 221.012 93.9284 223.052 93.9284H305.532C307.571 93.9284 309.225 92.2749 309.225 90.2353V87.6501C309.225 85.6104 307.571 83.957 305.532 83.957Z" fill="#C5DBF4"/>
<path d="M275.987 100.576H223.052C221.012 100.576 219.359 102.229 219.359 104.269V106.854C219.359 108.894 221.012 110.547 223.052 110.547H275.987C278.026 110.547 279.68 108.894 279.68 106.854V104.269C279.68 102.229 278.026 100.576 275.987 100.576Z" fill="#C5DBF4"/>
<path fill-rule="evenodd" clip-rule="evenodd" d="M197.2 112.025C205.358 112.025 211.972 105.41 211.972 97.2522C211.972 89.0941 205.358 82.4797 197.2 82.4797C189.042 82.4797 182.427 89.0941 182.427 97.2522C182.427 105.41 189.042 112.025 197.2 112.025Z" fill="#C5DBF4"/>
<path d="M327.69 140.339H176.272C173.553 140.339 171.348 142.543 171.348 145.263V187.118C171.348 189.838 173.553 192.042 176.272 192.042H327.69C330.41 192.042 332.614 189.838 332.614 187.118V145.263C332.614 142.543 330.41 140.339 327.69 140.339Z" fill="white"/>
<path d="M305.532 155.85H223.052C221.012 155.85 219.359 157.503 219.359 159.543V159.912C219.359 161.952 221.012 163.605 223.052 163.605H305.532C307.571 163.605 309.225 161.952 309.225 159.912V159.543C309.225 157.503 307.571 155.85 305.532 155.85Z" fill="#C5DBF4"/>
<path d="M275.987 168.776H223.052C221.012 168.776 219.359 170.429 219.359 172.469V172.838C219.359 174.878 221.012 176.531 223.052 176.531H275.987C278.026 176.531 279.68 174.878 279.68 172.838V172.469C279.68 170.429 278.026 168.776 275.987 168.776Z" fill="#C5DBF4"/>
<path fill-rule="evenodd" clip-rule="evenodd" d="M197.2 180.963C205.358 180.963 211.972 174.349 211.972 166.191C211.972 158.032 205.358 151.418 197.2 151.418C189.042 151.418 182.427 158.032 182.427 166.191C182.427 174.349 189.042 180.963 197.2 180.963Z" fill="#C5DBF4"/>
<path d="M327.69 201.891H176.272C173.553 201.891 171.348 204.095 171.348 206.815V248.67C171.348 251.39 173.553 253.594 176.272 253.594H327.69C330.41 253.594 332.614 251.39 332.614 248.67V206.815C332.614 204.095 330.41 201.891 327.69 201.891Z" fill="white"/>
<path d="M305.532 217.402H223.052C221.012 217.402 219.359 219.055 219.359 221.095V221.464C219.359 223.504 221.012 225.157 223.052 225.157H305.532C307.571 225.157 309.225 223.504 309.225 221.464V221.095C309.225 219.055 307.571 217.402 305.532 217.402Z" fill="#C5DBF4"/>
<path d="M275.987 230.328H223.052C221.012 230.328 219.359 231.981 219.359 234.021V234.39C219.359 236.43 221.012 238.083 223.052 238.083H275.987C278.026 238.083 279.68 236.43 279.68 234.39V234.021C279.68 231.981 278.026 230.328 275.987 230.328Z" fill="#C5DBF4"/>
<path fill-rule="evenodd" clip-rule="evenodd" d="M197.2 242.515C205.358 242.515 211.972 235.901 211.972 227.743C211.972 219.584 205.358 212.97 197.2 212.97C189.042 212.97 182.427 219.584 182.427 227.743C182.427 235.901 189.042 242.515 197.2 242.515Z" fill="#AFB9C5"/>
<path d="M327.69 263.443H176.272C173.553 263.443 171.348 265.647 171.348 268.367V310.222C171.348 312.942 173.553 315.147 176.272 315.147H327.69C330.41 315.147 332.614 312.942 332.614 310.222V268.367C332.614 265.647 330.41 263.443 327.69 263.443Z" fill="white"/>
<path d="M305.532 278.954H223.052C221.012 278.954 219.359 280.607 219.359 282.647V283.016C219.359 285.056 221.012 286.709 223.052 286.709H305.532C307.571 286.709 309.225 285.056 309.225 283.016V282.647C309.225 280.607 307.571 278.954 305.532 278.954Z" fill="#C5DBF4"/>
<path d="M275.987 291.88H223.052C221.012 291.88 219.359 293.533 219.359 295.573V295.942C219.359 297.982 221.012 299.635 223.052 299.635H275.987C278.026 299.635 279.68 297.982 279.68 295.942V295.573C279.68 293.533 278.026 291.88 275.987 291.88Z" fill="#C5DBF4"/>
<path fill-rule="evenodd" clip-rule="evenodd" d="M197.2 304.067C205.358 304.067 211.972 297.453 211.972 289.295C211.972 281.137 205.358 274.522 197.2 274.522C189.042 274.522 182.427 281.137 182.427 289.295C182.427 297.453 189.042 304.067 197.2 304.067Z" fill="#C5DBF4"/>
<path fill-rule="evenodd" clip-rule="evenodd" d="M191.217 329.919C189.586 329.919 187.96 329.952 186.331 330.036C185.089 330.101 183.192 329.844 182.142 330.618C181.05 331.422 181.125 333.067 181.296 334.229C182.197 340.374 184.397 345.823 189 350.177C196.087 356.88 204.211 360.286 213.824 361.803C220.577 362.869 226.811 361.389 231.782 356.587C235.415 363.328 238.17 370.788 239.553 378.317C240.235 382.033 240.443 385.704 240.323 389.487C240.246 391.909 240.113 394.327 239.853 396.739C239.74 397.786 239.206 399.372 239.615 400.363C240.097 401.525 241.721 401.638 242.449 400.646C243.056 399.821 242.945 398.2 243.07 397.224C243.277 395.601 243.467 393.977 243.604 392.348C243.827 389.709 243.991 387.064 243.98 384.415C243.951 378.465 242.628 372.492 240.818 366.844C237.347 356.007 231.715 346.377 222.955 338.821C217.568 334.175 211.402 332.294 204.409 331.283C200.054 330.654 195.628 329.919 191.217 329.919Z" fill="#89C5CC"/>
<path fill-rule="evenodd" clip-rule="evenodd" d="M216.369 373.005C198.766 373.005 186.911 387.192 181.306 401.937C179.192 407.494 178.697 413.598 177.882 419.433C177.621 421.307 177.719 424.16 176.958 425.828C176.682 426.434 176.049 426.651 176.352 427.475C176.536 427.974 176.894 428.28 177.434 428.379C178.541 428.583 180.107 427.377 181.056 426.902C188.93 422.952 194.103 416.847 198.323 409.377C200.94 404.747 203.594 399.939 205.148 394.856C206.097 391.75 206.649 388.481 206.974 385.259C207.102 383.99 207.226 382.691 207.218 381.416C207.211 380.149 206.621 379.479 206.198 378.378C212.071 376.154 218.701 375.549 224.651 377.852C230.154 379.983 234.725 384.101 237.284 389.275C237.949 390.619 238.462 392.037 238.835 393.485C239.08 394.433 239.091 395.662 239.545 396.518C240.643 398.596 242.955 397.208 242.734 395.274C242.115 389.881 239.03 384.465 235.085 380.715C230.111 375.986 223.369 373.005 216.369 373.005Z" fill="#89C5CC"/>
<path d="M421.249 61.5521H245.211C239.771 61.5521 235.362 65.9613 235.362 71.4004V423.478C235.362 428.917 239.771 433.326 245.211 433.326H421.249C426.689 433.326 431.098 428.917 431.098 423.478V71.4004C431.098 65.9613 426.689 61.5521 421.249 61.5521Z" fill="#C5DBF4"/>
<path fill-rule="evenodd" clip-rule="evenodd" d="M332.614 409.937C342.812 409.937 351.08 401.669 351.08 391.471C351.08 381.273 342.812 373.005 332.614 373.005C322.416 373.005 314.149 381.273 314.149 391.471C314.149 401.669 322.416 409.937 332.614 409.937Z" fill="white"/>
<path fill-rule="evenodd" clip-rule="evenodd" d="M316.611 86.1729C317.971 86.1729 319.073 85.0711 319.073 83.7108C319.073 82.3505 317.971 81.2487 316.611 81.2487C315.251 81.2487 314.149 82.3505 314.149 83.7108C314.149 85.0711 315.251 86.1729 316.611 86.1729Z" fill="white"/>
<path d="M348.618 81.2487H327.69C326.331 81.2487 325.228 82.351 325.228 83.7108C325.228 85.0705 326.331 86.1729 327.69 86.1729H348.618C349.978 86.1729 351.08 85.0705 351.08 83.7108C351.08 82.351 349.978 81.2487 348.618 81.2487Z" fill="white"/>
<path d="M408.939 96.0212H257.521C254.801 96.0212 252.597 98.2258 252.597 100.945V157.573C252.597 160.293 254.801 162.497 257.521 162.497H408.939C411.659 162.497 413.863 160.293 413.863 157.573V100.945C413.863 98.2258 411.659 96.0212 408.939 96.0212Z" fill="white"/>
<path d="M349.849 115.964H267.369C265.33 115.964 263.676 117.618 263.676 119.657V122.242C263.676 124.282 265.33 125.935 267.369 125.935H349.849C351.889 125.935 353.542 124.282 353.542 122.242V119.657C353.542 117.618 351.889 115.964 349.849 115.964Z" fill="#C5DBF4"/>
<path d="M320.304 132.583H267.369C265.33 132.583 263.676 134.237 263.676 136.276V138.861C263.676 140.901 265.33 142.555 267.369 142.555H320.304C322.344 142.555 323.997 140.901 323.997 138.861V136.276C323.997 134.237 322.344 132.583 320.304 132.583Z" fill="#C5DBF4"/>
<path fill-rule="evenodd" clip-rule="evenodd" d="M396.629 137.877C401.388 137.877 405.246 134.019 405.246 129.259C405.246 124.5 401.388 120.642 396.629 120.642C391.869 120.642 388.011 124.5 388.011 129.259C388.011 134.019 391.869 137.877 396.629 137.877Z" fill="#C5DBF4"/>
<path fill-rule="evenodd" clip-rule="evenodd" d="M396.629 132.952C398.668 132.952 400.322 131.299 400.322 129.259C400.322 127.219 398.668 125.566 396.629 125.566C394.589 125.566 392.935 127.219 392.935 129.259C392.935 131.299 394.589 132.952 396.629 132.952Z" fill="#F2F2F2"/>
<path d="M408.939 172.346H257.521C254.801 172.346 252.597 174.55 252.597 177.27V219.125C252.597 221.845 254.801 224.049 257.521 224.049H408.939C411.659 224.049 413.863 221.845 413.863 219.125V177.27C413.863 174.55 411.659 172.346 408.939 172.346Z" fill="white"/>
<path d="M386.78 187.857H304.3C302.261 187.857 300.607 189.51 300.607 191.55V191.919C300.607 193.959 302.261 195.612 304.3 195.612H386.78C388.82 195.612 390.473 193.959 390.473 191.919V191.55C390.473 189.51 388.82 187.857 386.78 187.857Z" fill="#C5DBF4"/>
<path d="M357.235 200.783H304.3C302.261 200.783 300.607 202.436 300.607 204.476V204.845C300.607 206.885 302.261 208.538 304.3 208.538H357.235C359.275 208.538 360.928 206.885 360.928 204.845V204.476C360.928 202.436 359.275 200.783 357.235 200.783Z" fill="#C5DBF4"/>
<path fill-rule="evenodd" clip-rule="evenodd" d="M278.449 212.97C286.607 212.97 293.221 206.356 293.221 198.198C293.221 190.039 286.607 183.425 278.449 183.425C270.291 183.425 263.676 190.039 263.676 198.198C263.676 206.356 270.291 212.97 278.449 212.97Z" fill="#C5DBF4"/>
<path d="M408.939 233.898H257.521C254.801 233.898 252.597 236.102 252.597 238.822V280.677C252.597 283.397 254.801 285.601 257.521 285.601H408.939C411.659 285.601 413.863 283.397 413.863 280.677V238.822C413.863 236.102 411.659 233.898 408.939 233.898Z" fill="white"/>
<path d="M349.849 249.409H267.369C265.33 249.409 263.676 251.062 263.676 253.102V253.471C263.676 255.511 265.33 257.164 267.369 257.164H349.849C351.889 257.164 353.542 255.511 353.542 253.471V253.102C353.542 251.062 351.889 249.409 349.849 249.409Z" fill="#C5DBF4"/>
<path d="M320.304 262.335H267.369C265.33 262.335 263.676 263.988 263.676 266.028V266.397C263.676 268.437 265.33 270.09 267.369 270.09H320.304C322.344 270.09 323.997 268.437 323.997 266.397V266.028C323.997 263.988 322.344 262.335 320.304 262.335Z" fill="#AFB9C5"/>
<path fill-rule="evenodd" clip-rule="evenodd" d="M396.629 268.367C401.388 268.367 405.246 264.509 405.246 259.75C405.246 254.99 401.388 251.132 396.629 251.132C391.869 251.132 388.011 254.99 388.011 259.75C388.011 264.509 391.869 268.367 396.629 268.367Z" fill="#C5DBF4"/>
<path fill-rule="evenodd" clip-rule="evenodd" d="M396.629 263.443C398.668 263.443 400.322 261.79 400.322 259.75C400.322 257.71 398.668 256.057 396.629 256.057C394.589 256.057 392.935 257.71 392.935 259.75C392.935 261.79 394.589 263.443 396.629 263.443Z" fill="#F2F2F2"/>
<path d="M408.939 295.45H257.521C254.801 295.45 252.597 297.654 252.597 300.374V342.229C252.597 344.949 254.801 347.154 257.521 347.154H408.939C411.659 347.154 413.863 344.949 413.863 342.229V300.374C413.863 297.654 411.659 295.45 408.939 295.45Z" fill="white"/>
<path d="M386.78 310.961H304.3C302.261 310.961 300.607 312.614 300.607 314.654V315.023C300.607 317.063 302.261 318.716 304.3 318.716H386.78C388.82 318.716 390.473 317.063 390.473 315.023V314.654C390.473 312.614 388.82 310.961 386.78 310.961Z" fill="#C5DBF4"/>
<path d="M357.235 323.887H304.3C302.261 323.887 300.607 325.54 300.607 327.58V327.949C300.607 329.989 302.261 331.642 304.3 331.642H357.235C359.275 331.642 360.928 329.989 360.928 327.949V327.58C360.928 325.54 359.275 323.887 357.235 323.887Z" fill="#C5DBF4"/>
<path fill-rule="evenodd" clip-rule="evenodd" d="M278.449 336.074C286.607 336.074 293.221 329.46 293.221 321.302C293.221 313.144 286.607 306.529 278.449 306.529C270.291 306.529 263.676 313.144 263.676 321.302C263.676 329.46 270.291 336.074 278.449 336.074Z" fill="#C5DBF4"/>
<path d="M719.161 92.3281H326.459C321.02 92.3281 316.611 96.7373 316.611 102.176V508.42C316.611 513.859 321.02 518.268 326.459 518.268H719.161C724.6 518.268 729.01 513.859 729.01 508.42V102.176C729.01 96.7373 724.6 92.3281 719.161 92.3281Z" fill="#F2F2F2"/>
<path d="M699.465 145.263H632.988C627.549 145.263 623.14 149.672 623.14 155.111V235.129C623.14 240.568 627.549 244.977 632.988 244.977H699.465C704.904 244.977 709.313 240.568 709.313 235.129V155.111C709.313 149.672 704.904 145.263 699.465 145.263Z" fill="white"/>
<path fill-rule="evenodd" clip-rule="evenodd" d="M666.227 203.122C677.105 203.122 685.923 194.304 685.923 183.425C685.923 172.546 677.105 163.728 666.227 163.728C655.348 163.728 646.53 172.546 646.53 183.425C646.53 194.304 655.348 203.122 666.227 203.122Z" fill="#C5DBF4"/>
<path d="M693.309 208.046H639.144C637.104 208.046 635.451 209.699 635.451 211.739C635.451 213.779 637.104 215.432 639.144 215.432H693.309C695.349 215.432 697.003 213.779 697.003 211.739C697.003 209.699 695.349 208.046 693.309 208.046Z" fill="#C5DBF4"/>
<path d="M683.461 220.356H648.992C646.952 220.356 645.299 222.01 645.299 224.049C645.299 226.089 646.952 227.743 648.992 227.743H683.461C685.501 227.743 687.154 226.089 687.154 224.049C687.154 222.01 685.501 220.356 683.461 220.356Z" fill="#C5DBF4"/>
<path d="M316.611 102.176C316.611 96.7377 321.021 92.3281 326.459 92.3281H719.161C724.6 92.3281 729.01 96.7377 729.01 102.176V125.566H316.611V102.176Z" fill="#C5DBF4"/>
<path fill-rule="evenodd" clip-rule="evenodd" d="M332.614 114.487C335.334 114.487 337.539 112.282 337.539 109.563C337.539 106.843 335.334 104.639 332.614 104.639C329.895 104.639 327.69 106.843 327.69 109.563C327.69 112.282 329.895 114.487 332.614 114.487Z" fill="#F2F2F2"/>
<path fill-rule="evenodd" clip-rule="evenodd" d="M347.387 114.487C350.106 114.487 352.311 112.282 352.311 109.563C352.311 106.843 350.106 104.639 347.387 104.639C344.668 104.639 342.463 106.843 342.463 109.563C342.463 112.282 344.668 114.487 347.387 114.487Z" fill="#F2F2F2"/>
<path fill-rule="evenodd" clip-rule="evenodd" d="M362.159 114.487C364.879 114.487 367.084 112.282 367.084 109.563C367.084 106.843 364.879 104.639 362.159 104.639C359.44 104.639 357.235 106.843 357.235 109.563C357.235 112.282 359.44 114.487 362.159 114.487Z" fill="#F2F2F2"/>
<path d="M699.465 254.826H632.988C627.549 254.826 623.14 259.235 623.14 264.674V483.799C623.14 489.238 627.549 493.647 632.988 493.647H699.465C704.904 493.647 709.313 489.238 709.313 483.799V264.674C709.313 259.235 704.904 254.826 699.465 254.826Z" fill="white"/>
<path d="M682.23 276.984H650.223C647.503 276.984 645.299 279.189 645.299 281.908V304.067C645.299 306.787 647.503 308.991 650.223 308.991H682.23C684.95 308.991 687.154 306.787 687.154 304.067V281.908C687.154 279.189 684.95 276.984 682.23 276.984Z" fill="#C5DBF4"/>
<path d="M682.23 318.84H650.223C647.503 318.84 645.299 321.044 645.299 323.764V344.691C645.299 347.411 647.503 349.616 650.223 349.616H682.23C684.95 349.616 687.154 347.411 687.154 344.691V323.764C687.154 321.044 684.95 318.84 682.23 318.84Z" fill="#AFB9C5"/>
<path d="M682.23 359.464H650.223C647.503 359.464 645.299 361.669 645.299 364.388V385.316C645.299 388.035 647.503 390.24 650.223 390.24H682.23C684.95 390.24 687.154 388.035 687.154 385.316V364.388C687.154 361.669 684.95 359.464 682.23 359.464Z" fill="#C5DBF4"/>
<path d="M682.23 440.713H650.223C647.503 440.713 645.299 442.917 645.299 445.637V466.565C645.299 469.284 647.503 471.489 650.223 471.489H682.23C684.95 471.489 687.154 469.284 687.154 466.565V445.637C687.154 442.917 684.95 440.713 682.23 440.713Z" fill="#C5DBF4"/>
<path d="M682.23 400.088H650.223C647.503 400.088 645.299 402.293 645.299 405.012V425.94C645.299 428.66 647.503 430.864 650.223 430.864H682.23C684.95 430.864 687.154 428.66 687.154 425.94V405.012C687.154 402.293 684.95 400.088 682.23 400.088Z" fill="#C5DBF4"/>
<path d="M608.368 146.494H341.232C338.512 146.494 336.308 148.699 336.308 151.418V199.429C336.308 202.148 338.512 204.353 341.232 204.353H608.368C611.087 204.353 613.292 202.148 613.292 199.429V151.418C613.292 148.699 611.087 146.494 608.368 146.494Z" fill="white"/>
<path d="M549.278 163.852H351.08C349.04 163.852 347.387 165.505 347.387 167.545V168.837C347.387 170.877 349.04 172.53 351.08 172.53H549.278C551.317 172.53 552.971 170.877 552.971 168.837V167.545C552.971 165.505 551.317 163.852 549.278 163.852Z" fill="#C5DBF4"/>
<path d="M481.689 178.316H351.08C349.04 178.316 347.387 179.97 347.387 182.009V183.302C347.387 185.342 349.04 186.995 351.08 186.995H481.689C483.728 186.995 485.382 185.342 485.382 183.302V182.009C485.382 179.97 483.728 178.316 481.689 178.316Z" fill="#C5DBF4"/>
<path fill-rule="evenodd" clip-rule="evenodd" d="M583.69 184.041C588.449 184.041 592.307 180.183 592.307 175.423C592.307 170.664 588.449 166.806 583.69 166.806C578.931 166.806 575.073 170.664 575.073 175.423C575.073 180.183 578.931 184.041 583.69 184.041Z" fill="#C5DBF4"/>
<path fill-rule="evenodd" clip-rule="evenodd" d="M583.69 179.116C585.73 179.116 587.383 177.463 587.383 175.423C587.383 173.384 585.73 171.73 583.69 171.73C581.65 171.73 579.997 173.384 579.997 175.423C579.997 177.463 581.65 179.116 583.69 179.116Z" fill="#F2F2F2"/>
<path d="M608.368 214.201H341.232C338.512 214.201 336.308 216.406 336.308 219.125V257.288C336.308 260.007 338.512 262.212 341.232 262.212H608.368C611.087 262.212 613.292 260.007 613.292 257.288V219.125C613.292 216.406 611.087 214.201 608.368 214.201Z" fill="white"/>
<path d="M549.37 228.604H350.988C348.999 228.604 347.387 230.216 347.387 232.205C347.387 234.194 348.999 235.806 350.988 235.806H549.37C551.359 235.806 552.971 234.194 552.971 232.205C552.971 230.216 551.359 228.604 549.37 228.604Z" fill="#C5DBF4"/>
<path d="M481.781 240.607H350.988C348.999 240.607 347.387 242.219 347.387 244.208C347.387 246.196 348.999 247.809 350.988 247.809H481.781C483.77 247.809 485.382 246.196 485.382 244.208C485.382 242.219 483.77 240.607 481.781 240.607Z" fill="#C5DBF4"/>
<path fill-rule="evenodd" clip-rule="evenodd" d="M583.69 246.824C588.449 246.824 592.307 242.966 592.307 238.206C592.307 233.447 588.449 229.589 583.69 229.589C578.931 229.589 575.073 233.447 575.073 238.206C575.073 242.966 578.931 246.824 583.69 246.824Z" fill="#C5DBF4"/>
<path fill-rule="evenodd" clip-rule="evenodd" d="M583.69 241.9C585.73 241.9 587.383 240.246 587.383 238.206C587.383 236.167 585.73 234.513 583.69 234.513C581.65 234.513 579.997 236.167 579.997 238.206C579.997 240.246 581.65 241.9 583.69 241.9Z" fill="#F2F2F2"/>
<path d="M608.368 272.06H341.232C338.512 272.06 336.308 274.265 336.308 276.984V315.147C336.308 317.866 338.512 320.071 341.232 320.071H608.368C611.087 320.071 613.292 317.866 613.292 315.147V276.984C613.292 274.265 611.087 272.06 608.368 272.06Z" fill="white"/>
<path d="M549.37 286.463H350.988C348.999 286.463 347.387 288.075 347.387 290.064C347.387 292.053 348.999 293.665 350.988 293.665H549.37C551.359 293.665 552.971 292.053 552.971 290.064C552.971 288.075 551.359 286.463 549.37 286.463Z" fill="#C5DBF4"/>
<path d="M481.781 298.466H350.988C348.999 298.466 347.387 300.078 347.387 302.067C347.387 304.055 348.999 305.667 350.988 305.667H481.781C483.77 305.667 485.382 304.055 485.382 302.067C485.382 300.078 483.77 298.466 481.781 298.466Z" fill="#C5DBF4"/>
<path fill-rule="evenodd" clip-rule="evenodd" d="M583.69 304.683C588.449 304.683 592.307 300.825 592.307 296.065C592.307 291.306 588.449 287.448 583.69 287.448C578.931 287.448 575.073 291.306 575.073 296.065C575.073 300.825 578.931 304.683 583.69 304.683Z" fill="#C5DBF4"/>
<path fill-rule="evenodd" clip-rule="evenodd" d="M583.69 299.759C585.73 299.759 587.383 298.105 587.383 296.065C587.383 294.026 585.73 292.372 583.69 292.372C581.65 292.372 579.997 294.026 579.997 296.065C579.997 298.105 581.65 299.759 583.69 299.759Z" fill="#AFB9C5"/>
<path d="M608.368 445.637H341.232C338.512 445.637 336.308 447.841 336.308 450.561V488.723C336.308 491.443 338.512 493.647 341.232 493.647H608.368C611.087 493.647 613.292 491.443 613.292 488.723V450.561C613.292 447.841 611.087 445.637 608.368 445.637Z" fill="white"/>
<path d="M549.37 460.04H350.988C348.999 460.04 347.387 461.652 347.387 463.641C347.387 465.629 348.999 467.242 350.988 467.242H549.37C551.359 467.242 552.971 465.629 552.971 463.641C552.971 461.652 551.359 460.04 549.37 460.04Z" fill="#C5DBF4"/>
<path d="M481.781 472.043H350.988C348.999 472.043 347.387 473.655 347.387 475.644C347.387 477.632 348.999 479.244 350.988 479.244H481.781C483.77 479.244 485.382 477.632 485.382 475.644C485.382 473.655 483.77 472.043 481.781 472.043Z" fill="#C5DBF4"/>
<path fill-rule="evenodd" clip-rule="evenodd" d="M583.69 478.259C588.449 478.259 592.307 474.401 592.307 469.642C592.307 464.883 588.449 461.025 583.69 461.025C578.931 461.025 575.073 464.883 575.073 469.642C575.073 474.401 578.931 478.259 583.69 478.259Z" fill="#C5DBF4"/>
<path fill-rule="evenodd" clip-rule="evenodd" d="M583.69 473.335C585.73 473.335 587.383 471.682 587.383 469.642C587.383 467.602 585.73 465.949 583.69 465.949C581.65 465.949 579.997 467.602 579.997 469.642C579.997 471.682 581.65 473.335 583.69 473.335Z" fill="#F2F2F2"/>
<path d="M608.368 387.778H341.232C338.512 387.778 336.308 389.983 336.308 392.702V430.864C336.308 433.584 338.512 435.788 341.232 435.788H608.368C611.087 435.788 613.292 433.584 613.292 430.864V392.702C613.292 389.983 611.087 387.778 608.368 387.778Z" fill="white"/>
<path d="M549.37 402.181H350.988C348.999 402.181 347.387 403.793 347.387 405.782C347.387 407.771 348.999 409.383 350.988 409.383H549.37C551.359 409.383 552.971 407.771 552.971 405.782C552.971 403.793 551.359 402.181 549.37 402.181Z" fill="#C5DBF4"/>
<path d="M481.781 414.184H350.988C348.999 414.184 347.387 415.796 347.387 417.784C347.387 419.773 348.999 421.385 350.988 421.385H481.781C483.77 421.385 485.382 419.773 485.382 417.784C485.382 415.796 483.77 414.184 481.781 414.184Z" fill="#C5DBF4"/>
<path fill-rule="evenodd" clip-rule="evenodd" d="M583.69 420.401C588.449 420.401 592.307 416.542 592.307 411.783C592.307 407.024 588.449 403.166 583.69 403.166C578.931 403.166 575.073 407.024 575.073 411.783C575.073 416.542 578.931 420.401 583.69 420.401Z" fill="#C5DBF4"/>
<path fill-rule="evenodd" clip-rule="evenodd" d="M583.69 415.476C585.73 415.476 587.383 413.823 587.383 411.783C587.383 409.743 585.73 408.09 583.69 408.09C581.65 408.09 579.997 409.743 579.997 411.783C579.997 413.823 581.65 415.476 583.69 415.476Z" fill="#F2F2F2"/>
<path d="M608.368 329.919H341.232C338.512 329.919 336.308 332.124 336.308 334.843V373.005C336.308 375.725 338.512 377.93 341.232 377.93H608.368C611.087 377.93 613.292 375.725 613.292 373.005V334.843C613.292 332.124 611.087 329.919 608.368 329.919Z" fill="white"/>
<path d="M549.37 344.322H350.988C348.999 344.322 347.387 345.934 347.387 347.923C347.387 349.912 348.999 351.524 350.988 351.524H549.37C551.359 351.524 552.971 349.912 552.971 347.923C552.971 345.934 551.359 344.322 549.37 344.322Z" fill="#C5DBF4"/>
<path d="M481.781 356.325H350.988C348.999 356.325 347.387 357.937 347.387 359.926C347.387 361.914 348.999 363.526 350.988 363.526H481.781C483.77 363.526 485.382 361.914 485.382 359.926C485.382 357.937 483.77 356.325 481.781 356.325Z" fill="#C5DBF4"/>
<path fill-rule="evenodd" clip-rule="evenodd" d="M583.69 362.542C588.449 362.542 592.307 358.684 592.307 353.924C592.307 349.165 588.449 345.307 583.69 345.307C578.931 345.307 575.073 349.165 575.073 353.924C575.073 358.684 578.931 362.542 583.69 362.542Z" fill="#C5DBF4"/>
<path fill-rule="evenodd" clip-rule="evenodd" d="M583.69 357.617C585.73 357.617 587.383 355.964 587.383 353.924C587.383 351.885 585.73 350.231 583.69 350.231C581.65 350.231 579.997 351.885 579.997 353.924C579.997 355.964 581.65 357.617 583.69 357.617Z" fill="#F2F2F2"/>
<path fill-rule="evenodd" clip-rule="evenodd" d="M831.169 302.068C826.312 298.775 819.855 297.912 814.045 297.912C791.349 297.912 770.017 306.332 751.588 318.879C741.49 325.753 732.457 334.508 724.482 343.623C719.878 348.886 715.773 354.577 712.867 360.908C710.906 365.181 709.56 369.634 708.648 374.225C707.537 379.822 706.653 385.531 706.254 391.221C706.096 393.462 704.795 405.35 708.52 405.552C708.498 405.845 708.493 406.124 708.516 406.374C700.427 419.022 695.431 433.843 690.796 447.896C686.764 460.125 683.171 472.456 680.839 485.108C677.768 501.762 675.751 518.67 674.792 535.564C674.587 539.195 674.445 542.828 674.323 546.463C674.22 549.564 674.115 552.665 674.013 555.767C673.9 559.242 673.288 563.243 673.84 566.697C674.322 569.706 676.925 569.251 677.041 566.257C677.18 562.641 677.157 559.018 677.316 555.4C677.526 550.598 677.743 545.796 677.978 540.995C679.614 507.643 685.751 474.782 697.078 443.278C701.662 430.53 706.914 418.462 713.665 406.668C719.599 396.299 726.74 386.26 734.037 376.912C741.129 367.825 748.504 358.951 757.194 351.253C764.247 345.007 772.005 339.564 779.98 334.501C790.107 328.07 800.217 321.795 811.188 316.859C816.891 314.293 822.702 311.996 828.449 309.533C829.483 309.091 830.591 308.661 831.586 308.148C834.904 306.437 833.812 303.86 831.169 302.068Z" fill="#C1DEE2"/>
<path fill-rule="evenodd" clip-rule="evenodd" d="M739.865 418.554C749.069 418.554 757.261 419.751 765.741 423.408C773.062 426.566 779.735 430.745 786.212 435.295C795.323 441.695 802.5 449.143 807.524 459.012C810.525 464.908 812.728 473.25 810.711 479.681C808.338 487.255 801.818 493.572 793.232 492.238C787.922 491.413 783.056 487.899 779.021 484.591C774.193 480.633 770.328 475.875 767.137 470.59C761.933 461.969 758.875 452.224 754.453 443.215C752.355 438.94 750.328 434.635 747.814 430.571C746.57 428.56 745.246 426.567 743.359 425.071C742.349 424.271 738.092 422.887 739.72 421.091C715.85 421.404 694.703 439.736 690.12 462.429C689.694 464.544 689.36 466.677 689.007 468.805C688.785 470.148 688.875 475.104 687.674 475.962C685.025 477.856 686.137 472.103 686.252 471.275C686.546 469.134 686.859 466.995 687.187 464.86C688.977 453.246 694.148 442.45 702.77 434.167C712.629 424.697 725.933 418.554 739.865 418.554Z" fill="#89C5CC"/>
<path fill-rule="evenodd" clip-rule="evenodd" d="M76.4815 389.915C99.4606 428.466 126.224 465.794 142.297 507.944C141.649 502.975 140.962 498.011 140.193 493.057C136.116 466.785 131.046 440.705 125.721 414.658C123.009 401.396 120.139 388.18 117.197 374.968C115.615 367.871 114.052 360.77 112.437 353.681C112.045 351.962 111.709 348.962 111.22 345.923C126.84 397.179 141.903 448.474 152.921 500.962C154.366 507.851 155.597 514.728 156.605 521.592C156.95 520.026 157.29 518.46 157.66 516.898C162.119 498.178 168.806 479.606 176.768 462.101C180.575 453.731 184.946 445.543 190.094 437.913C193.305 433.158 200.876 427.505 203.803 422.634C187.789 452.009 182.005 488.763 172.758 520.697C170.501 528.491 168.23 536.271 166.004 544.065C179.949 516.098 201.586 493.119 231.669 483.163C195.255 507.222 173.414 549.357 158.695 592.451C158.647 592.962 158.59 593.473 158.539 593.985C162.871 585.765 168.326 578.33 175.719 573.123C191.546 561.975 209.1 565.223 224.451 574.785C212.403 567.127 190.63 574.101 180.492 581.885C173.235 587.456 167.033 594.931 161.647 602.225C160.357 603.973 158.596 606.013 156.736 608.188C154.128 625.116 149.879 641.929 143.861 658.607C144.855 653.819 144.137 646.164 144.413 642.595C144.442 642.209 144.467 641.822 144.497 641.438C143.582 645.089 142.698 648.698 141.847 652.251C143.539 645.473 144.457 638.397 145.175 631.248C145.36 628.177 145.541 625.104 145.73 622.033C145.67 616.201 145.43 610.349 145.023 604.485C143.584 598.788 141.972 593.413 140.641 588.944C135.844 572.816 128.808 557.366 120.15 542.952C112.251 529.798 102.794 517.884 91.878 507.109C85.993 501.301 79.8342 495.771 73.7621 490.164C71.5664 488.136 67.6417 483.152 64.2475 480.553C88.9674 494.182 114.411 508.925 132.445 530.884C130.33 522.765 128.034 514.761 125.605 506.918C113.281 467.123 97.7211 425.882 76.4815 389.915Z" fill="#C5DBF4"/>
<path fill-rule="evenodd" clip-rule="evenodd" d="M101.179 608.134C101.179 652.327 104.678 688.152 151.651 688.152C198.624 688.152 202.124 652.327 202.124 608.134" fill="#C5DBF4"/>
<path d="M631.757 43.0864C631.757 41.0468 630.104 39.3933 628.064 39.3933C626.025 39.3933 624.371 41.0468 624.371 43.0864V66.4762C624.371 68.5159 626.025 70.1693 628.064 70.1693C630.104 70.1693 631.757 68.5159 631.757 66.4762V43.0864Z" fill="#C5DBF4"/>
<path d="M648.992 23.3898C648.992 21.3501 647.338 19.6967 645.299 19.6967C643.259 19.6967 641.606 21.3501 641.606 23.3898V66.4762C641.606 68.5159 643.259 70.1693 645.299 70.1693C647.338 70.1693 648.992 68.5159 648.992 66.4762V23.3898Z" fill="#C5DBF4"/>
<path d="M666.227 13.5415C666.227 11.5018 664.573 9.84833 662.533 9.84833C660.494 9.84833 658.84 11.5018 658.84 13.5415V66.4762C658.84 68.5159 660.494 70.1693 662.533 70.1693C664.573 70.1693 666.227 68.5159 666.227 66.4762V13.5415Z" fill="#C5DBF4"/>
<path d="M683.461 23.3898C683.461 21.3501 681.808 19.6967 679.768 19.6967C677.728 19.6967 676.075 21.3501 676.075 23.3898V66.4762C676.075 68.5159 677.728 70.1693 679.768 70.1693C681.808 70.1693 683.461 68.5159 683.461 66.4762V23.3898Z" fill="#C5DBF4"/>
<path d="M700.696 3.69312C700.696 1.65347 699.042 0 697.003 0C694.963 0 693.309 1.65347 693.309 3.69312V66.4762C693.309 68.5159 694.963 70.1693 697.003 70.1693C699.042 70.1693 700.696 68.5159 700.696 66.4762V3.69312Z" fill="#C5DBF4"/>
<path fill-rule="evenodd" clip-rule="evenodd" d="M18.6989 377.014C18.6989 363.301 29.7807 352.078 43.3197 352.078V377.014L26.4939 395.164C21.7076 390.726 18.6989 384.217 18.6989 377.014Z" fill="#F2F2F2"/>
<path fill-rule="evenodd" clip-rule="evenodd" d="M42.6682 376.699H67.5319C67.5319 383.126 64.91 389.148 60.7652 393.524C56.2064 398.311 49.7145 401.319 42.6682 401.319C36.1776 401.319 30.2364 398.723 25.6765 394.619L42.6682 376.699Z" fill="#AFB9C5"/>
<path fill-rule="evenodd" clip-rule="evenodd" d="M67.9406 376.699C67.9406 363.16 56.8587 352.078 43.3197 352.078V376.699H67.9406ZM31.0093 352.078L40.8577 374.236L18.6989 364.388C20.8902 358.644 25.8106 354.269 31.0093 352.078Z" fill="#C5DBF4"/>
<path fill-rule="evenodd" clip-rule="evenodd" d="M819.818 387.998C817.454 390.51 814.103 392.087 810.375 392.087C803.214 392.087 797.409 386.299 797.409 379.161C797.409 372.022 803.214 366.235 810.375 366.235V342.229C790.003 342.229 773.327 358.852 773.327 379.161C773.327 399.469 790.003 416.092 810.375 416.092C821.076 416.092 830.749 411.579 837.341 404.399L819.818 387.998Z" fill="#F2F2F2"/>
<path fill-rule="evenodd" clip-rule="evenodd" d="M810.258 342.229V366.235C817.397 366.235 823.184 372.022 823.184 379.161H847.189C847.189 358.852 830.567 342.229 810.258 342.229Z" fill="#AFB9C5"/>
<path fill-rule="evenodd" clip-rule="evenodd" d="M822.688 379.161C822.688 383.355 820.712 387.082 817.645 389.49L832.74 408.706C841.526 401.827 847.19 391.162 847.19 379.161H822.688Z" fill="#C5DBF4"/>
<path fill-rule="evenodd" clip-rule="evenodd" d="M585.041 48.6309C583.221 50.5563 580.643 51.7653 577.776 51.7653C572.267 51.7653 567.802 47.3285 567.802 41.8554C567.802 36.3823 572.267 31.9455 577.776 31.9455V13.5415C562.105 13.5415 549.278 26.2856 549.278 41.8554C549.278 57.4252 562.105 70.1693 577.776 70.1693C586.008 70.1693 593.447 66.7089 598.519 61.2049L585.041 48.6309Z" fill="#F2F2F2"/>
<path fill-rule="evenodd" clip-rule="evenodd" d="M577.592 13.5415V31.9455C583.065 31.9455 587.501 36.3823 587.501 41.8554H605.906C605.906 26.2856 593.162 13.5415 577.592 13.5415Z" fill="#AFB9C5"/>
<path fill-rule="evenodd" clip-rule="evenodd" d="M587.53 41.8554C587.53 45.0009 586.048 47.7971 583.747 49.6025L595.067 64.0141C601.658 58.8546 605.906 50.8568 605.906 41.8554H587.53Z" fill="#C5DBF4"/>
<path fill-rule="evenodd" clip-rule="evenodd" d="M136.888 70.1521C136.883 70.1644 136.878 70.1767 136.87 70.1915C136.878 70.1792 136.888 70.13 136.888 70.1521Z" fill="#C5DBF4"/>
<path fill-rule="evenodd" clip-rule="evenodd" d="M136.876 70.1706C136.876 70.173 136.874 70.178 136.874 70.1829C136.874 70.1706 136.896 70.1336 136.876 70.1706Z" fill="#C5DBF4"/>
<path fill-rule="evenodd" clip-rule="evenodd" d="M136.961 69.9625C136.944 70.0118 136.922 70.0585 136.902 70.1078C136.912 70.0832 136.922 70.0635 136.932 70.0388C136.676 70.679 136.838 70.2629 136.961 69.9625Z" fill="#C5DBF4"/>
<path fill-rule="evenodd" clip-rule="evenodd" d="M136.906 70.1115C136.896 70.1336 136.886 70.1583 136.876 70.1804C136.805 70.3183 136.906 70.1115 136.906 70.1115Z" fill="#C5DBF4"/>
<path fill-rule="evenodd" clip-rule="evenodd" d="M136.878 70.1709C136.878 70.1689 136.878 70.1689 136.88 70.1669C136.878 70.1689 136.878 70.1689 136.878 70.1709Z" fill="#C5DBF4"/>
<path fill-rule="evenodd" clip-rule="evenodd" d="M136.867 70.189C136.852 70.2186 136.936 70.0758 136.867 70.189V70.189Z" fill="#C5DBF4"/>
<path fill-rule="evenodd" clip-rule="evenodd" d="M136.876 70.1709L136.88 70.1669C136.878 70.1689 136.878 70.1709 136.876 70.1709Z" fill="#C5DBF4"/>
<path d="M189.814 6.1552H82.7131C79.9936 6.1552 77.789 8.35982 77.789 11.0794V78.7866C77.789 81.5062 79.9936 83.7108 82.7131 83.7108H189.814C192.533 83.7108 194.738 81.5062 194.738 78.7866V11.0794C194.738 8.35982 192.533 6.1552 189.814 6.1552Z" fill="#C5DBF4"/>
<path fill-rule="evenodd" clip-rule="evenodd" d="M122.106 28.3139L87.6373 83.7108H156.576L122.106 28.3139Z" fill="#AFB9C5"/>
<path fill-rule="evenodd" clip-rule="evenodd" d="M155.96 43.0864L125.8 83.7108H186.121L155.96 43.0864Z" fill="#C5DBF4"/>
<path fill-rule="evenodd" clip-rule="evenodd" d="M168.886 43.0864C175.006 43.0864 179.965 38.1261 179.965 32.0071C179.965 25.8881 175.006 20.9277 168.886 20.9277C162.767 20.9277 157.807 25.8881 157.807 32.0071C157.807 38.1261 162.767 43.0864 168.886 43.0864Z" fill="white"/>
<path fill-rule="evenodd" clip-rule="evenodd" d="M724.077 595.807C724.082 595.819 724.087 595.831 724.094 595.846C724.087 595.834 724.077 595.784 724.077 595.807Z" fill="#C5DBF4"/>
<path fill-rule="evenodd" clip-rule="evenodd" d="M724.088 595.825C724.088 595.828 724.09 595.832 724.09 595.837C724.09 595.825 724.068 595.788 724.088 595.825Z" fill="#C5DBF4"/>
<path fill-rule="evenodd" clip-rule="evenodd" d="M724.003 595.617C724.02 595.666 724.042 595.713 724.062 595.762C724.052 595.738 724.042 595.718 724.032 595.693C724.288 596.333 724.126 595.917 724.003 595.617Z" fill="#C5DBF4"/>
<path fill-rule="evenodd" clip-rule="evenodd" d="M724.058 595.766C724.068 595.788 724.078 595.813 724.088 595.835C724.159 595.973 724.058 595.766 724.058 595.766Z" fill="#C5DBF4"/>
<path fill-rule="evenodd" clip-rule="evenodd" d="M724.086 595.825C724.086 595.823 724.086 595.823 724.084 595.821C724.086 595.823 724.086 595.823 724.086 595.825Z" fill="#C5DBF4"/>
<path fill-rule="evenodd" clip-rule="evenodd" d="M724.098 595.844C724.112 595.873 724.029 595.73 724.098 595.844V595.844Z" fill="#C5DBF4"/>
<path fill-rule="evenodd" clip-rule="evenodd" d="M724.087 595.825L724.083 595.821C724.085 595.823 724.085 595.825 724.087 595.825Z" fill="#C5DBF4"/>
<path d="M641.606 501.034H806.565C809.285 501.034 811.489 503.238 811.489 505.958V611.827C811.489 614.547 809.285 616.752 806.565 616.752H641.606C638.886 616.752 636.681 614.547 636.681 611.827V505.958C636.681 503.238 638.886 501.034 641.606 501.034Z" fill="#C5DBF4"/>
<path fill-rule="evenodd" clip-rule="evenodd" d="M746.581 534.272L797.122 616.752H696.041L746.581 534.272Z" fill="#AFB9C5"/>
<path fill-rule="evenodd" clip-rule="evenodd" d="M694.471 556.365L739.152 616.752H649.791L694.471 556.365Z" fill="#C5DBF4"/>
<path fill-rule="evenodd" clip-rule="evenodd" d="M675.459 556.431C666.281 556.431 658.84 548.99 658.84 539.811C658.84 530.633 666.281 523.192 675.459 523.192C684.638 523.192 692.078 530.633 692.078 539.811C692.078 548.99 684.638 556.431 675.459 556.431Z" fill="white"/>
</svg>
