<svg width="160" height="160" viewBox="0 0 160 160" fill="none" xmlns="http://www.w3.org/2000/svg">
<mask id="mask0_10_486" style="mask-type:alpha" maskUnits="userSpaceOnUse" x="11" y="11" width="138" height="138">
<path d="M60 13.3334H20C18.2319 13.3334 16.5362 14.0358 15.2859 15.286C14.0357 16.5362 13.3333 18.2319 13.3333 20V60C13.3333 61.7682 14.0357 63.4638 15.2859 64.7141C16.5362 65.9643 18.2319 66.6667 20 66.6667H60C61.7681 66.6667 63.4638 65.9643 64.714 64.7141C65.9643 63.4638 66.6667 61.7682 66.6667 60V20C66.6667 18.2319 65.9643 16.5362 64.714 15.286C63.4638 14.0358 61.7681 13.3334 60 13.3334ZM60 93.3334H20C18.2319 93.3334 16.5362 94.0358 15.2859 95.286C14.0357 96.5362 13.3333 98.2319 13.3333 100V140C13.3333 141.768 14.0357 143.464 15.2859 144.714C16.5362 145.964 18.2319 146.667 20 146.667H60C61.7681 146.667 63.4638 145.964 64.714 144.714C65.9643 143.464 66.6667 141.768 66.6667 140V100C66.6667 98.2319 65.9643 96.5362 64.714 95.286C63.4638 94.0358 61.7681 93.3334 60 93.3334ZM140 13.3334H100C98.2319 13.3334 96.5362 14.0358 95.286 15.286C94.0357 16.5362 93.3333 18.2319 93.3333 20V60C93.3333 61.7682 94.0357 63.4638 95.286 64.7141C96.5362 65.9643 98.2319 66.6667 100 66.6667H140C141.768 66.6667 143.464 65.9643 144.714 64.7141C145.964 63.4638 146.667 61.7682 146.667 60V20C146.667 18.2319 145.964 16.5362 144.714 15.286C143.464 14.0358 141.768 13.3334 140 13.3334Z" fill="white" stroke="white" stroke-width="4" stroke-linejoin="round"/>
<path d="M93.3333 93.3334H146.667M120 120H146.667M93.3333 146.667H146.667" stroke="white" stroke-width="4" stroke-linecap="round" stroke-linejoin="round"/>
</mask>
<g mask="url(#mask0_10_486)">
<path d="M0 0H160V160H0V0Z" fill="#043B7C"/>
</g>
</svg>
