<?xml version="1.0" encoding="UTF-8"?>
<!DOCTYPE svg PUBLIC "-//W3C//DTD SVG 1.1//EN" "http://www.w3.org/Graphics/SVG/1.1/DTD/svg11.dtd">
<!-- Creator: CorelDRAW 2020 (64-Bit) -->
<svg xmlns="http://www.w3.org/2000/svg" xml:space="preserve" width="797px" height="850px" version="1.1" style="shape-rendering:geometricPrecision; text-rendering:geometricPrecision; image-rendering:optimizeQuality; fill-rule:evenodd; clip-rule:evenodd"
viewBox="0 0 414.79 442.44"
 xmlns:xlink="http://www.w3.org/1999/xlink"
 xmlns:xodm="http://www.corel.com/coreldraw/odm/2003">
 <defs>
  <style type="text/css">
   <![CDATA[
    .fil0 {fill:black}
    .fil2 {fill:black}
    .fil1 {fill:black;fill-rule:nonzero}
   ]]>
  </style>
 </defs>
 <g id="Слой_x0020_1">
  <metadata id="CorelCorpID_0Corel-Layer"/>
  <g id="_2184830810112">
   <path class="fil0" d="M359.48 27.65l-304.17 0c-15.3,0 -27.66,12.36 -27.66,27.66l0 331.83c0,15.29 12.36,27.65 27.66,27.65l304.17 0c15.3,0 27.66,-12.36 27.66,-27.65l0 -331.83c0,-15.3 -12.36,-27.66 -27.66,-27.66zm-304.17 -27.65c-30.6,0 -55.31,24.71 -55.31,55.31l0 331.83c0,30.59 24.71,55.3 55.31,55.3l304.17 0c30.59,0 55.31,-24.71 55.31,-55.3l0 -331.83c0,-30.6 -24.72,-55.31 -55.31,-55.31l-304.17 0z"/>
   <path class="fil1" d="M193.57 55.31l27.65 0c15.3,0 27.65,12.35 27.65,27.65l0 82.96c0,15.29 -12.35,27.65 -27.65,27.65l-27.65 0c-15.3,0 -27.65,-12.36 -27.65,-27.65l0 -82.96c0,-15.3 12.35,-27.65 27.65,-27.65z"/>
   <path class="fil1" d="M304.94 55.31l27.65 0c15.3,0 27.66,12.35 27.66,27.65l0 82.96c0,15.29 -12.36,27.65 -27.66,27.65l-27.65 0c-15.3,0 -27.65,-12.36 -27.65,-27.65l0 -82.96c0,-15.3 12.35,-27.65 27.65,-27.65z"/>
   <path class="fil1" d="M82.96 55.31l27.65 0c15.3,0 27.65,12.35 27.65,27.65l0 193.57c0,15.29 -12.35,27.65 -27.65,27.65l-27.65 0c-15.3,0 -27.65,-12.36 -27.65,-27.65l0 -193.57c0,-15.3 12.35,-27.65 27.65,-27.65z"/>
   <path class="fil0" d="M376.11 219.78l-154.07 0c-7.74,0 -14,6.26 -14,14l0 168.08c0,7.74 6.26,14 14,14l154.07 0c7.75,0 14.01,-6.26 14.01,-14l0 -168.08c0,-7.74 -6.26,-14 -14.01,-14zm-154.07 -14.01c-15.49,0 -28.01,12.52 -28.01,28.01l0 168.08c0,15.49 12.52,28.01 28.01,28.01l154.07 0c15.5,0 28.01,-12.52 28.01,-28.01l0 -168.08c0,-15.49 -12.51,-28.01 -28.01,-28.01l-154.07 0z"/>
   <path class="fil1" d="M207.39 213.29l184.34 0 0 204.46 -184.95 0 0 -204.46 0.61 0zm183.11 1.23l-182.49 0 0 202 182.49 0 0 -202z"/>
   <polygon class="fil2" points="229.34,300.88 365.92,300.88 365.92,336.65 229.34,336.65 "/>
   <polygon class="fil2" points="315.51,250.48 315.51,387.06 279.75,387.06 279.75,250.48 "/>
  </g>
 </g>
</svg>
