<svg width="134" height="134" viewBox="0 0 134 134" fill="none" xmlns="http://www.w3.org/2000/svg">
<path d="M48.4583 67C43.4583 67 39.2917 65.125 35.9583 61.375C32.625 57.625 31.3056 53.25 32 48.25L34.7083 27.8334C35.8194 19.9167 39.4306 13.3556 45.5417 8.15004C51.6528 2.93893 58.8056 0.333374 67 0.333374C75.1944 0.333374 82.3472 2.93893 88.4583 8.15004C94.5694 13.3556 98.1806 19.9167 99.2917 27.8334L102 48.25C102.694 53.25 101.375 57.625 98.0417 61.375C94.7083 65.125 90.5417 67 85.5417 67H48.4583ZM0.333332 133.667V110.333C0.333332 105.611 1.55 101.269 3.98333 97.3084C6.41111 93.3528 9.63889 90.3334 13.6667 88.25C22.2778 83.9445 31.0278 80.7139 39.9167 78.5584C48.8056 76.4084 57.8333 75.3334 67 75.3334C76.1667 75.3334 85.1944 76.4084 94.0833 78.5584C102.972 80.7139 111.722 83.9445 120.333 88.25C124.361 90.3334 127.589 93.3528 130.017 97.3084C132.45 101.269 133.667 105.611 133.667 110.333V133.667H0.333332Z" fill="#043B7C"/>
</svg>
