<svg width="134" height="134" viewBox="0 0 134 134" fill="none" xmlns="http://www.w3.org/2000/svg">
<path d="M67 67C57.8333 67 49.9861 63.7361 43.4583 57.2084C36.9306 50.6806 33.6667 42.8334 33.6667 33.6667C33.6667 24.5 36.9306 16.6528 43.4583 10.125C49.9861 3.59726 57.8333 0.333374 67 0.333374C76.1667 0.333374 84.0139 3.59726 90.5417 10.125C97.0695 16.6528 100.333 24.5 100.333 33.6667C100.333 42.8334 97.0695 50.6806 90.5417 57.2084C84.0139 63.7361 76.1667 67 67 67ZM0.333344 133.667V110.333C0.333344 105.611 1.55001 101.269 3.98335 97.3084C6.41112 93.3528 9.6389 90.3334 13.6667 88.25C22.2778 83.9445 31.0278 80.7139 39.9167 78.5584C48.8056 76.4084 57.8333 75.3334 67 75.3334C76.1667 75.3334 85.1945 76.4084 94.0833 78.5584C102.972 80.7139 111.722 83.9445 120.333 88.25C124.361 90.3334 127.589 93.3528 130.017 97.3084C132.45 101.269 133.667 105.611 133.667 110.333V133.667H0.333344Z" fill="#043B7C"/>
</svg>
